solid kapture-case
facet normal 0.0 0.0 1.0
  outer loop
    vertex 145.93205 1.1000000000000028 42.7
    vertex 1.1000000000000054 82.218702 42.7
    vertex 1.1000000000000048 1.1000000000000028 42.7
  endloop
endfacet
facet normal 0.0 0.0 1.0
  outer loop
    vertex 1.1000000000000054 82.218702 42.7
    vertex 145.93205 1.1000000000000028 42.7
    vertex 145.93205 82.218702 42.7
  endloop
endfacet
facet normal -0.0 -0.0 -1.0
  outer loop
    vertex 1.1000000000000054 82.218702 40.7
    vertex 145.93205 1.1000000000000028 40.7
    vertex 1.1000000000000048 1.1000000000000028 40.7
  endloop
endfacet
facet normal -0.0 -0.0 -1.0
  outer loop
    vertex 145.93205 1.1000000000000028 40.7
    vertex 1.1000000000000054 82.218702 40.7
    vertex 145.93205 82.218702 40.7
  endloop
endfacet
facet normal 0.0 1.0 0.0
  outer loop
    vertex 1.1000000000000054 82.218702 42.7
    vertex 145.93205 82.218702 40.7
    vertex 1.1000000000000054 82.218702 40.7
  endloop
endfacet
facet normal 0.0 1.0 0.0
  outer loop
    vertex 145.93205 82.218702 40.7
    vertex 1.1000000000000054 82.218702 42.7
    vertex 145.93205 82.218702 42.7
  endloop
endfacet
facet normal -1.0 8.669489346214287e-18 0.0
  outer loop
    vertex 1.1000000000000054 82.218702 42.7
    vertex 1.1000000000000048 1.1000000000000028 40.7
    vertex 1.1000000000000048 1.1000000000000028 42.7
  endloop
endfacet
facet normal -1.0 8.669489346214287e-18 0.0
  outer loop
    vertex 1.1000000000000048 1.1000000000000028 40.7
    vertex 1.1000000000000054 82.218702 42.7
    vertex 1.1000000000000054 82.218702 40.7
  endloop
endfacet
facet normal 0.0 -1.0 0.0
  outer loop
    vertex 145.93205 1.1000000000000028 42.7
    vertex 1.1000000000000048 1.1000000000000028 40.7
    vertex 145.93205 1.1000000000000028 40.7
  endloop
endfacet
facet normal 0.0 -1.0 0.0
  outer loop
    vertex 1.1000000000000048 1.1000000000000028 40.7
    vertex 145.93205 1.1000000000000028 42.7
    vertex 1.1000000000000048 1.1000000000000028 42.7
  endloop
endfacet
facet normal 1.0 0.0 0.0
  outer loop
    vertex 145.93205 82.218702 40.7
    vertex 145.93205 1.1000000000000028 42.7
    vertex 145.93205 1.1000000000000028 40.7
  endloop
endfacet
facet normal 1.0 0.0 0.0
  outer loop
    vertex 145.93205 1.1000000000000028 42.7
    vertex 145.93205 82.218702 40.7
    vertex 145.93205 82.218702 42.7
  endloop
endfacet
facet normal -1.0 0.0 0.0
  outer loop
    vertex 103.77403750000003 0.14999999999999972 36.699999999999896
    vertex 103.77403750000003 2.149999999999996 36.699999999999896
    vertex 103.77403750000003 2.149999999999996 34.6999999999999
  endloop
endfacet
facet normal 0.0 -0.7071067811865476 -0.7071067811865476
  outer loop
    vertex 111.77403750000002 0.14999999999999972 36.699999999999896
    vertex 103.77403750000003 2.149999999999996 34.6999999999999
    vertex 111.77403750000002 2.149999999999996 34.6999999999999
  endloop
endfacet
facet normal 0.0 -0.7071067811865476 -0.7071067811865476
  outer loop
    vertex 103.77403750000003 2.149999999999996 34.6999999999999
    vertex 111.77403750000002 0.14999999999999972 36.699999999999896
    vertex 103.77403750000003 0.14999999999999972 36.699999999999896
  endloop
endfacet
facet normal 1.0 0.0 0.0
  outer loop
    vertex 111.77403750000002 0.14999999999999972 36.699999999999896
    vertex 111.77403750000002 2.149999999999996 34.6999999999999
    vertex 111.77403750000002 2.149999999999996 36.699999999999896
  endloop
endfacet
facet normal -1.0 0.0 0.0
  outer loop
    vertex 103.77403750000003 2.149999999999996 34.6999999999999
    vertex 103.77403750000003 4.149999999999992 40.69999999999992
    vertex 103.77403750000003 4.149999999999992 34.6999999999999
  endloop
endfacet
facet normal -1.0 0.0 0.0
  outer loop
    vertex 103.77403750000003 4.149999999999992 40.69999999999992
    vertex 103.77403750000003 2.149999999999996 34.6999999999999
    vertex 103.77403750000003 2.149999999999996 40.69999999999992
  endloop
endfacet
facet normal -1.0 0.0 0.0
  outer loop
    vertex 103.77403750000003 2.149999999999996 40.69999999999992
    vertex 103.77403750000003 2.149999999999996 34.6999999999999
    vertex 103.77403750000003 2.149999999999996 36.699999999999896
  endloop
endfacet
facet normal 1.0 0.0 0.0
  outer loop
    vertex 111.77403750000002 2.149999999999996 40.69999999999992
    vertex 111.77403750000002 4.149999999999992 34.6999999999999
    vertex 111.77403750000002 4.149999999999992 40.69999999999992
  endloop
endfacet
facet normal 1.0 0.0 0.0
  outer loop
    vertex 111.77403750000002 4.149999999999992 34.6999999999999
    vertex 111.77403750000002 2.149999999999996 40.69999999999992
    vertex 111.77403750000002 2.149999999999996 34.6999999999999
  endloop
endfacet
facet normal 1.0 0.0 0.0
  outer loop
    vertex 111.77403750000002 2.149999999999996 34.6999999999999
    vertex 111.77403750000002 2.149999999999996 40.69999999999992
    vertex 111.77403750000002 2.149999999999996 36.699999999999896
  endloop
endfacet
facet normal 0.0 0.0 -1.0
  outer loop
    vertex 103.77403750000003 2.149999999999996 34.6999999999999
    vertex 111.77403750000002 4.149999999999992 34.6999999999999
    vertex 111.77403750000002 2.149999999999996 34.6999999999999
  endloop
endfacet
facet normal 0.0 0.0 -1.0
  outer loop
    vertex 111.77403750000002 4.149999999999992 34.6999999999999
    vertex 103.77403750000003 2.149999999999996 34.6999999999999
    vertex 103.77403750000003 4.149999999999992 34.6999999999999
  endloop
endfacet
facet normal 0.0 0.0 1.0
  outer loop
    vertex 103.77403750000003 2.149999999999996 36.699999999999896
    vertex 111.77403750000002 0.14999999999999972 36.699999999999896
    vertex 111.77403750000002 2.149999999999996 36.699999999999896
  endloop
endfacet
facet normal 0.0 0.0 1.0
  outer loop
    vertex 111.77403750000002 0.14999999999999972 36.699999999999896
    vertex 103.77403750000003 2.149999999999996 36.699999999999896
    vertex 103.77403750000003 0.14999999999999972 36.699999999999896
  endloop
endfacet
facet normal 0.0 -1.0 0.0
  outer loop
    vertex 111.77403750000002 2.149999999999996 40.69999999999992
    vertex 103.77403750000003 2.149999999999996 36.699999999999896
    vertex 111.77403750000002 2.149999999999996 36.699999999999896
  endloop
endfacet
facet normal 0.0 -1.0 0.0
  outer loop
    vertex 103.77403750000003 2.149999999999996 36.699999999999896
    vertex 111.77403750000002 2.149999999999996 40.69999999999992
    vertex 103.77403750000003 2.149999999999996 40.69999999999992
  endloop
endfacet
facet normal -2.0749797430996126e-30 -7.124125850647335e-15 1.0
  outer loop
    vertex 107.27403750000002 5.150000000000002 40.69999999999994
    vertex 108.27403750000002 4.150000000000004 40.69999999999994
    vertex 108.27403750000002 5.150000000000002 40.69999999999994
  endloop
endfacet
facet normal -2.0749797430996126e-30 -7.124125850647335e-15 1.0
  outer loop
    vertex 108.27403750000002 4.150000000000004 40.69999999999994
    vertex 111.77403750000002 2.149999999999996 40.69999999999992
    vertex 111.77403750000002 4.149999999999992 40.69999999999992
  endloop
endfacet
facet normal -2.0749797430996126e-30 -7.124125850647335e-15 1.0
  outer loop
    vertex 111.77403750000002 2.149999999999996 40.69999999999992
    vertex 108.27403750000002 4.150000000000004 40.69999999999994
    vertex 103.77403750000003 2.149999999999996 40.69999999999992
  endloop
endfacet
facet normal -2.0749797430996126e-30 -7.124125850647335e-15 1.0
  outer loop
    vertex 103.77403750000003 2.149999999999996 40.69999999999992
    vertex 108.27403750000002 4.150000000000004 40.69999999999994
    vertex 107.27403750000002 4.150000000000004 40.69999999999994
  endloop
endfacet
facet normal -2.0749797430996126e-30 -7.124125850647335e-15 1.0
  outer loop
    vertex 107.27403750000002 4.150000000000004 40.69999999999994
    vertex 108.27403750000002 4.150000000000004 40.69999999999994
    vertex 107.27403750000002 5.150000000000002 40.69999999999994
  endloop
endfacet
facet normal -2.0749797430996126e-30 -7.124125850647335e-15 1.0
  outer loop
    vertex 103.77403750000003 2.149999999999996 40.69999999999992
    vertex 107.27403750000002 4.150000000000004 40.69999999999994
    vertex 103.77403750000003 4.149999999999992 40.69999999999992
  endloop
endfacet
facet normal -1.8927281605436748e-30 1.0 -4.177728122293155e-16
  outer loop
    vertex 103.77403750000003 4.149999999999992 34.6999999999999
    vertex 107.27403750000002 4.150000000000004 36.69999999999989
    vertex 111.77403750000002 4.149999999999992 34.6999999999999
  endloop
endfacet
facet normal -1.8927281605436748e-30 1.0 -4.177728122293155e-16
  outer loop
    vertex 107.27403750000002 4.150000000000004 36.69999999999989
    vertex 103.77403750000003 4.149999999999992 34.6999999999999
    vertex 103.77403750000003 4.149999999999992 40.69999999999992
  endloop
endfacet
facet normal -1.8927281605436748e-30 1.0 -4.177728122293155e-16
  outer loop
    vertex 107.27403750000002 4.150000000000004 36.69999999999989
    vertex 103.77403750000003 4.149999999999992 40.69999999999992
    vertex 107.27403750000002 4.150000000000004 40.69999999999994
  endloop
endfacet
facet normal -1.8927281605436748e-30 1.0 -4.177728122293155e-16
  outer loop
    vertex 111.77403750000002 4.149999999999992 34.6999999999999
    vertex 108.27403750000002 4.150000000000004 36.69999999999989
    vertex 111.77403750000002 4.149999999999992 40.69999999999992
  endloop
endfacet
facet normal -1.8927281605436748e-30 1.0 -4.177728122293155e-16
  outer loop
    vertex 108.27403750000002 4.150000000000004 36.69999999999989
    vertex 111.77403750000002 4.149999999999992 34.6999999999999
    vertex 107.27403750000002 4.150000000000004 36.69999999999989
  endloop
endfacet
facet normal -1.8927281605436748e-30 1.0 -4.177728122293155e-16
  outer loop
    vertex 111.77403750000002 4.149999999999992 40.69999999999992
    vertex 108.27403750000002 4.150000000000004 36.69999999999989
    vertex 108.27403750000002 4.150000000000004 40.69999999999994
  endloop
endfacet
facet normal -1.0 0.0 0.0
  outer loop
    vertex 107.27403750000002 4.150000000000004 40.69999999999994
    vertex 107.27403750000002 5.150000000000002 40.69999999999994
    vertex 107.27403750000002 4.150000000000004 36.69999999999989
  endloop
endfacet
facet normal 1.0 0.0 0.0
  outer loop
    vertex 108.27403750000002 4.150000000000004 36.69999999999989
    vertex 108.27403750000002 5.150000000000002 40.69999999999994
    vertex 108.27403750000002 4.150000000000004 40.69999999999994
  endloop
endfacet
facet normal -0.0 0.9701425001453328 -0.24253562503632975
  outer loop
    vertex 107.27403750000002 5.150000000000002 40.69999999999994
    vertex 108.27403750000002 4.150000000000004 36.69999999999989
    vertex 107.27403750000002 4.150000000000004 36.69999999999989
  endloop
endfacet
facet normal -0.0 0.9701425001453328 -0.24253562503632975
  outer loop
    vertex 108.27403750000002 4.150000000000004 36.69999999999989
    vertex 107.27403750000002 5.150000000000002 40.69999999999994
    vertex 108.27403750000002 5.150000000000002 40.69999999999994
  endloop
endfacet
facet normal -1.0 0.0 0.0
  outer loop
    vertex 33.04403750000004 0.14999999999999972 36.699999999999896
    vertex 33.04403750000004 2.149999999999996 36.699999999999896
    vertex 33.04403750000004 2.149999999999996 34.6999999999999
  endloop
endfacet
facet normal 0.0 -0.7071067811865476 -0.7071067811865476
  outer loop
    vertex 41.04403750000002 0.14999999999999972 36.699999999999896
    vertex 33.04403750000004 2.149999999999996 34.6999999999999
    vertex 41.04403750000002 2.149999999999996 34.6999999999999
  endloop
endfacet
facet normal 0.0 -0.7071067811865476 -0.7071067811865476
  outer loop
    vertex 33.04403750000004 2.149999999999996 34.6999999999999
    vertex 41.04403750000002 0.14999999999999972 36.699999999999896
    vertex 33.04403750000004 0.14999999999999972 36.699999999999896
  endloop
endfacet
facet normal 1.0 0.0 0.0
  outer loop
    vertex 41.04403750000002 0.14999999999999972 36.699999999999896
    vertex 41.04403750000002 2.149999999999996 34.6999999999999
    vertex 41.04403750000002 2.149999999999996 36.699999999999896
  endloop
endfacet
facet normal -1.0 0.0 0.0
  outer loop
    vertex 33.04403750000004 2.149999999999996 34.6999999999999
    vertex 33.04403750000004 4.149999999999992 40.69999999999992
    vertex 33.04403750000004 4.149999999999992 34.6999999999999
  endloop
endfacet
facet normal -1.0 0.0 0.0
  outer loop
    vertex 33.04403750000004 4.149999999999992 40.69999999999992
    vertex 33.04403750000004 2.149999999999996 34.6999999999999
    vertex 33.04403750000004 2.149999999999996 40.69999999999992
  endloop
endfacet
facet normal -1.0 0.0 0.0
  outer loop
    vertex 33.04403750000004 2.149999999999996 40.69999999999992
    vertex 33.04403750000004 2.149999999999996 34.6999999999999
    vertex 33.04403750000004 2.149999999999996 36.699999999999896
  endloop
endfacet
facet normal 1.0 0.0 0.0
  outer loop
    vertex 41.04403750000002 2.149999999999996 40.69999999999992
    vertex 41.04403750000002 4.149999999999992 34.6999999999999
    vertex 41.04403750000002 4.149999999999992 40.69999999999992
  endloop
endfacet
facet normal 1.0 0.0 0.0
  outer loop
    vertex 41.04403750000002 4.149999999999992 34.6999999999999
    vertex 41.04403750000002 2.149999999999996 40.69999999999992
    vertex 41.04403750000002 2.149999999999996 34.6999999999999
  endloop
endfacet
facet normal 1.0 0.0 0.0
  outer loop
    vertex 41.04403750000002 2.149999999999996 34.6999999999999
    vertex 41.04403750000002 2.149999999999996 40.69999999999992
    vertex 41.04403750000002 2.149999999999996 36.699999999999896
  endloop
endfacet
facet normal 0.0 0.0 -1.0
  outer loop
    vertex 33.04403750000004 2.149999999999996 34.6999999999999
    vertex 41.04403750000002 4.149999999999992 34.6999999999999
    vertex 41.04403750000002 2.149999999999996 34.6999999999999
  endloop
endfacet
facet normal 0.0 0.0 -1.0
  outer loop
    vertex 41.04403750000002 4.149999999999992 34.6999999999999
    vertex 33.04403750000004 2.149999999999996 34.6999999999999
    vertex 33.04403750000004 4.149999999999992 34.6999999999999
  endloop
endfacet
facet normal 0.0 0.0 1.0
  outer loop
    vertex 33.04403750000004 2.149999999999996 36.699999999999896
    vertex 41.04403750000002 0.14999999999999972 36.699999999999896
    vertex 41.04403750000002 2.149999999999996 36.699999999999896
  endloop
endfacet
facet normal 0.0 0.0 1.0
  outer loop
    vertex 41.04403750000002 0.14999999999999972 36.699999999999896
    vertex 33.04403750000004 2.149999999999996 36.699999999999896
    vertex 33.04403750000004 0.14999999999999972 36.699999999999896
  endloop
endfacet
facet normal 0.0 -1.0 0.0
  outer loop
    vertex 41.04403750000002 2.149999999999996 40.69999999999992
    vertex 33.04403750000004 2.149999999999996 36.699999999999896
    vertex 41.04403750000002 2.149999999999996 36.699999999999896
  endloop
endfacet
facet normal 0.0 -1.0 0.0
  outer loop
    vertex 33.04403750000004 2.149999999999996 36.699999999999896
    vertex 41.04403750000002 2.149999999999996 40.69999999999992
    vertex 33.04403750000004 2.149999999999996 40.69999999999992
  endloop
endfacet
facet normal -2.0749797430996126e-30 -7.124125850647335e-15 1.0
  outer loop
    vertex 36.54403750000004 5.150000000000002 40.69999999999994
    vertex 37.54403750000004 4.150000000000004 40.69999999999994
    vertex 37.54403750000004 5.150000000000002 40.69999999999994
  endloop
endfacet
facet normal -2.0749797430996126e-30 -7.124125850647335e-15 1.0
  outer loop
    vertex 37.54403750000004 4.150000000000004 40.69999999999994
    vertex 41.04403750000002 2.149999999999996 40.69999999999992
    vertex 41.04403750000002 4.149999999999992 40.69999999999992
  endloop
endfacet
facet normal -2.0749797430996126e-30 -7.124125850647335e-15 1.0
  outer loop
    vertex 41.04403750000002 2.149999999999996 40.69999999999992
    vertex 37.54403750000004 4.150000000000004 40.69999999999994
    vertex 33.04403750000004 2.149999999999996 40.69999999999992
  endloop
endfacet
facet normal -2.0749797430996126e-30 -7.124125850647335e-15 1.0
  outer loop
    vertex 33.04403750000004 2.149999999999996 40.69999999999992
    vertex 37.54403750000004 4.150000000000004 40.69999999999994
    vertex 36.54403750000004 4.150000000000004 40.69999999999994
  endloop
endfacet
facet normal -2.0749797430996126e-30 -7.124125850647335e-15 1.0
  outer loop
    vertex 36.54403750000004 4.150000000000004 40.69999999999994
    vertex 37.54403750000004 4.150000000000004 40.69999999999994
    vertex 36.54403750000004 5.150000000000002 40.69999999999994
  endloop
endfacet
facet normal -2.0749797430996126e-30 -7.124125850647335e-15 1.0
  outer loop
    vertex 33.04403750000004 2.149999999999996 40.69999999999992
    vertex 36.54403750000004 4.150000000000004 40.69999999999994
    vertex 33.04403750000004 4.149999999999992 40.69999999999992
  endloop
endfacet
facet normal -1.8927281605436748e-30 1.0 -4.177728122293155e-16
  outer loop
    vertex 33.04403750000004 4.149999999999992 34.6999999999999
    vertex 36.54403750000004 4.150000000000004 36.69999999999989
    vertex 41.04403750000002 4.149999999999992 34.6999999999999
  endloop
endfacet
facet normal -1.8927281605436748e-30 1.0 -4.177728122293155e-16
  outer loop
    vertex 36.54403750000004 4.150000000000004 36.69999999999989
    vertex 33.04403750000004 4.149999999999992 34.6999999999999
    vertex 33.04403750000004 4.149999999999992 40.69999999999992
  endloop
endfacet
facet normal -1.8927281605436748e-30 1.0 -4.177728122293155e-16
  outer loop
    vertex 36.54403750000004 4.150000000000004 36.69999999999989
    vertex 33.04403750000004 4.149999999999992 40.69999999999992
    vertex 36.54403750000004 4.150000000000004 40.69999999999994
  endloop
endfacet
facet normal -1.8927281605436748e-30 1.0 -4.177728122293155e-16
  outer loop
    vertex 41.04403750000002 4.149999999999992 34.6999999999999
    vertex 37.54403750000004 4.150000000000004 36.69999999999989
    vertex 41.04403750000002 4.149999999999992 40.69999999999992
  endloop
endfacet
facet normal -1.8927281605436748e-30 1.0 -4.177728122293155e-16
  outer loop
    vertex 37.54403750000004 4.150000000000004 36.69999999999989
    vertex 41.04403750000002 4.149999999999992 34.6999999999999
    vertex 36.54403750000004 4.150000000000004 36.69999999999989
  endloop
endfacet
facet normal -1.8927281605436748e-30 1.0 -4.177728122293155e-16
  outer loop
    vertex 41.04403750000002 4.149999999999992 40.69999999999992
    vertex 37.54403750000004 4.150000000000004 36.69999999999989
    vertex 37.54403750000004 4.150000000000004 40.69999999999994
  endloop
endfacet
facet normal -1.0 0.0 0.0
  outer loop
    vertex 36.54403750000004 4.150000000000004 40.69999999999994
    vertex 36.54403750000004 5.150000000000002 40.69999999999994
    vertex 36.54403750000004 4.150000000000004 36.69999999999989
  endloop
endfacet
facet normal 1.0 0.0 0.0
  outer loop
    vertex 37.54403750000004 4.150000000000004 36.69999999999989
    vertex 37.54403750000004 5.150000000000002 40.69999999999994
    vertex 37.54403750000004 4.150000000000004 40.69999999999994
  endloop
endfacet
facet normal -0.0 0.9701425001453328 -0.24253562503632975
  outer loop
    vertex 36.54403750000004 5.150000000000002 40.69999999999994
    vertex 37.54403750000004 4.150000000000004 36.69999999999989
    vertex 36.54403750000004 4.150000000000004 36.69999999999989
  endloop
endfacet
facet normal -0.0 0.9701425001453328 -0.24253562503632975
  outer loop
    vertex 37.54403750000004 4.150000000000004 36.69999999999989
    vertex 36.54403750000004 5.150000000000002 40.69999999999994
    vertex 37.54403750000004 5.150000000000002 40.69999999999994
  endloop
endfacet
facet normal -1.0 0.0 0.0
  outer loop
    vertex 33.044037500000044 81.21000000000001 34.6999999999999
    vertex 33.044037500000044 81.21000000000001 36.699999999999896
    vertex 33.044037500000044 83.21000000000001 36.699999999999896
  endloop
endfacet
facet normal 0.0 0.7071067811865476 -0.7071067811865476
  outer loop
    vertex 41.04403750000003 81.21000000000001 34.6999999999999
    vertex 33.044037500000044 81.21000000000001 34.6999999999999
    vertex 41.04403750000003 83.21000000000001 36.699999999999896
  endloop
endfacet
facet normal 0.0 0.7071067811865476 -0.7071067811865476
  outer loop
    vertex 33.044037500000044 83.21000000000001 36.699999999999896
    vertex 41.04403750000003 83.21000000000001 36.699999999999896
    vertex 33.044037500000044 81.21000000000001 34.6999999999999
  endloop
endfacet
facet normal 1.0 0.0 0.0
  outer loop
    vertex 41.04403750000003 81.21000000000001 36.699999999999896
    vertex 41.04403750000003 81.21000000000001 34.6999999999999
    vertex 41.04403750000003 83.21000000000001 36.699999999999896
  endloop
endfacet
facet normal -1.0 0.0 0.0
  outer loop
    vertex 33.044037500000044 79.21000000000002 34.6999999999999
    vertex 33.044037500000044 79.21000000000002 40.69999999999992
    vertex 33.044037500000044 81.21000000000001 34.6999999999999
  endloop
endfacet
facet normal -1.0 0.0 0.0
  outer loop
    vertex 33.044037500000044 81.21000000000001 40.69999999999992
    vertex 33.044037500000044 81.21000000000001 34.6999999999999
    vertex 33.044037500000044 79.21000000000002 40.69999999999992
  endloop
endfacet
facet normal -1.0 0.0 0.0
  outer loop
    vertex 33.044037500000044 81.21000000000001 36.699999999999896
    vertex 33.044037500000044 81.21000000000001 34.6999999999999
    vertex 33.044037500000044 81.21000000000001 40.69999999999992
  endloop
endfacet
facet normal 1.0 0.0 0.0
  outer loop
    vertex 41.04403750000003 79.21000000000002 40.69999999999992
    vertex 41.04403750000003 79.21000000000002 34.6999999999999
    vertex 41.04403750000003 81.21000000000001 40.69999999999992
  endloop
endfacet
facet normal 1.0 0.0 0.0
  outer loop
    vertex 41.04403750000003 81.21000000000001 34.6999999999999
    vertex 41.04403750000003 81.21000000000001 40.69999999999992
    vertex 41.04403750000003 79.21000000000002 34.6999999999999
  endloop
endfacet
facet normal 1.0 0.0 0.0
  outer loop
    vertex 41.04403750000003 81.21000000000001 36.699999999999896
    vertex 41.04403750000003 81.21000000000001 40.69999999999992
    vertex 41.04403750000003 81.21000000000001 34.6999999999999
  endloop
endfacet
facet normal 0.0 0.0 -1.0
  outer loop
    vertex 41.04403750000003 81.21000000000001 34.6999999999999
    vertex 41.04403750000003 79.21000000000002 34.6999999999999
    vertex 33.044037500000044 81.21000000000001 34.6999999999999
  endloop
endfacet
facet normal 0.0 0.0 -1.0
  outer loop
    vertex 33.044037500000044 79.21000000000002 34.6999999999999
    vertex 33.044037500000044 81.21000000000001 34.6999999999999
    vertex 41.04403750000003 79.21000000000002 34.6999999999999
  endloop
endfacet
facet normal 0.0 0.0 1.0
  outer loop
    vertex 41.04403750000003 81.21000000000001 36.699999999999896
    vertex 41.04403750000003 83.21000000000001 36.699999999999896
    vertex 33.044037500000044 81.21000000000001 36.699999999999896
  endloop
endfacet
facet normal 0.0 0.0 1.0
  outer loop
    vertex 33.044037500000044 83.21000000000001 36.699999999999896
    vertex 33.044037500000044 81.21000000000001 36.699999999999896
    vertex 41.04403750000003 83.21000000000001 36.699999999999896
  endloop
endfacet
facet normal 0.0 1.0 0.0
  outer loop
    vertex 41.04403750000003 81.21000000000001 36.699999999999896
    vertex 33.044037500000044 81.21000000000001 36.699999999999896
    vertex 41.04403750000003 81.21000000000001 40.69999999999992
  endloop
endfacet
facet normal 0.0 1.0 0.0
  outer loop
    vertex 33.044037500000044 81.21000000000001 40.69999999999992
    vertex 41.04403750000003 81.21000000000001 40.69999999999992
    vertex 33.044037500000044 81.21000000000001 36.699999999999896
  endloop
endfacet
facet normal -2.0749797430996126e-30 7.124125850647335e-15 1.0
  outer loop
    vertex 37.54403750000004 78.21000000000001 40.69999999999994
    vertex 37.54403750000004 79.21000000000001 40.69999999999994
    vertex 36.544037500000044 78.21000000000001 40.69999999999994
  endloop
endfacet
facet normal -2.0749797430996126e-30 7.124125850647335e-15 1.0
  outer loop
    vertex 41.04403750000003 79.21000000000002 40.69999999999992
    vertex 41.04403750000003 81.21000000000001 40.69999999999992
    vertex 37.54403750000004 79.21000000000001 40.69999999999994
  endloop
endfacet
facet normal -2.0749797430996126e-30 7.124125850647335e-15 1.0
  outer loop
    vertex 33.044037500000044 81.21000000000001 40.69999999999992
    vertex 37.54403750000004 79.21000000000001 40.69999999999994
    vertex 41.04403750000003 81.21000000000001 40.69999999999992
  endloop
endfacet
facet normal -2.0749797430996126e-30 7.124125850647335e-15 1.0
  outer loop
    vertex 36.544037500000044 79.21000000000001 40.69999999999994
    vertex 37.54403750000004 79.21000000000001 40.69999999999994
    vertex 33.044037500000044 81.21000000000001 40.69999999999992
  endloop
endfacet
facet normal -2.0749797430996126e-30 7.124125850647335e-15 1.0
  outer loop
    vertex 36.544037500000044 78.21000000000001 40.69999999999994
    vertex 37.54403750000004 79.21000000000001 40.69999999999994
    vertex 36.544037500000044 79.21000000000001 40.69999999999994
  endloop
endfacet
facet normal -2.0749797430996126e-30 7.124125850647335e-15 1.0
  outer loop
    vertex 33.044037500000044 79.21000000000002 40.69999999999992
    vertex 36.544037500000044 79.21000000000001 40.69999999999994
    vertex 33.044037500000044 81.21000000000001 40.69999999999992
  endloop
endfacet
facet normal -1.8927281605436748e-30 -1.0 -4.177728122293155e-16
  outer loop
    vertex 41.04403750000003 79.21000000000002 34.6999999999999
    vertex 36.544037500000044 79.21000000000001 36.69999999999989
    vertex 33.044037500000044 79.21000000000002 34.6999999999999
  endloop
endfacet
facet normal -1.8927281605436748e-30 -1.0 -4.177728122293155e-16
  outer loop
    vertex 33.044037500000044 79.21000000000002 40.69999999999992
    vertex 33.044037500000044 79.21000000000002 34.6999999999999
    vertex 36.544037500000044 79.21000000000001 36.69999999999989
  endloop
endfacet
facet normal -1.8927281605436748e-30 -1.0 -4.177728122293155e-16
  outer loop
    vertex 36.544037500000044 79.21000000000001 40.69999999999994
    vertex 33.044037500000044 79.21000000000002 40.69999999999992
    vertex 36.544037500000044 79.21000000000001 36.69999999999989
  endloop
endfacet
facet normal -1.8927281605436748e-30 -1.0 -4.177728122293155e-16
  outer loop
    vertex 41.04403750000003 79.21000000000002 40.69999999999992
    vertex 37.54403750000004 79.21000000000001 36.69999999999989
    vertex 41.04403750000003 79.21000000000002 34.6999999999999
  endloop
endfacet
facet normal -1.8927281605436748e-30 -1.0 -4.177728122293155e-16
  outer loop
    vertex 36.544037500000044 79.21000000000001 36.69999999999989
    vertex 41.04403750000003 79.21000000000002 34.6999999999999
    vertex 37.54403750000004 79.21000000000001 36.69999999999989
  endloop
endfacet
facet normal -1.8927281605436748e-30 -1.0 -4.177728122293155e-16
  outer loop
    vertex 37.54403750000004 79.21000000000001 40.69999999999994
    vertex 37.54403750000004 79.21000000000001 36.69999999999989
    vertex 41.04403750000003 79.21000000000002 40.69999999999992
  endloop
endfacet
facet normal -1.0 0.0 0.0
  outer loop
    vertex 36.544037500000044 79.21000000000001 36.69999999999989
    vertex 36.544037500000044 78.21000000000001 40.69999999999994
    vertex 36.544037500000044 79.21000000000001 40.69999999999994
  endloop
endfacet
facet normal 1.0 0.0 0.0
  outer loop
    vertex 37.54403750000004 79.21000000000001 40.69999999999994
    vertex 37.54403750000004 78.21000000000001 40.69999999999994
    vertex 37.54403750000004 79.21000000000001 36.69999999999989
  endloop
endfacet
facet normal -0.0 -0.9701425001453328 -0.24253562503632975
  outer loop
    vertex 36.544037500000044 79.21000000000001 36.69999999999989
    vertex 37.54403750000004 79.21000000000001 36.69999999999989
    vertex 36.544037500000044 78.21000000000001 40.69999999999994
  endloop
endfacet
facet normal -0.0 -0.9701425001453328 -0.24253562503632975
  outer loop
    vertex 37.54403750000004 78.21000000000001 40.69999999999994
    vertex 36.544037500000044 78.21000000000001 40.69999999999994
    vertex 37.54403750000004 79.21000000000001 36.69999999999989
  endloop
endfacet
facet normal -1.0 0.0 0.0
  outer loop
    vertex 103.77403750000003 81.21000000000001 34.699999999999925
    vertex 103.77403750000003 81.21000000000001 36.699999999999925
    vertex 103.77403750000003 83.21000000000001 36.699999999999925
  endloop
endfacet
facet normal 0.0 0.7071067811865476 -0.7071067811865476
  outer loop
    vertex 111.77403750000002 81.21000000000001 34.699999999999925
    vertex 103.77403750000003 81.21000000000001 34.699999999999925
    vertex 111.77403750000002 83.21000000000001 36.699999999999925
  endloop
endfacet
facet normal 0.0 0.7071067811865476 -0.7071067811865476
  outer loop
    vertex 103.77403750000003 83.21000000000001 36.699999999999925
    vertex 111.77403750000002 83.21000000000001 36.699999999999925
    vertex 103.77403750000003 81.21000000000001 34.699999999999925
  endloop
endfacet
facet normal 1.0 0.0 0.0
  outer loop
    vertex 111.77403750000002 81.21000000000001 36.699999999999925
    vertex 111.77403750000002 81.21000000000001 34.699999999999925
    vertex 111.77403750000002 83.21000000000001 36.699999999999925
  endloop
endfacet
facet normal -1.0 0.0 0.0
  outer loop
    vertex 103.77403750000003 79.21000000000002 34.699999999999925
    vertex 103.77403750000003 79.21000000000002 40.69999999999994
    vertex 103.77403750000003 81.21000000000001 34.699999999999925
  endloop
endfacet
facet normal -1.0 0.0 0.0
  outer loop
    vertex 103.77403750000003 81.21000000000001 40.69999999999994
    vertex 103.77403750000003 81.21000000000001 34.699999999999925
    vertex 103.77403750000003 79.21000000000002 40.69999999999994
  endloop
endfacet
facet normal -1.0 0.0 0.0
  outer loop
    vertex 103.77403750000003 81.21000000000001 36.699999999999925
    vertex 103.77403750000003 81.21000000000001 34.699999999999925
    vertex 103.77403750000003 81.21000000000001 40.69999999999994
  endloop
endfacet
facet normal 1.0 0.0 0.0
  outer loop
    vertex 111.77403750000002 79.21000000000002 40.69999999999994
    vertex 111.77403750000002 79.21000000000002 34.699999999999925
    vertex 111.77403750000002 81.21000000000001 40.69999999999994
  endloop
endfacet
facet normal 1.0 0.0 0.0
  outer loop
    vertex 111.77403750000002 81.21000000000001 34.699999999999925
    vertex 111.77403750000002 81.21000000000001 40.69999999999994
    vertex 111.77403750000002 79.21000000000002 34.699999999999925
  endloop
endfacet
facet normal 1.0 0.0 0.0
  outer loop
    vertex 111.77403750000002 81.21000000000001 36.699999999999925
    vertex 111.77403750000002 81.21000000000001 40.69999999999994
    vertex 111.77403750000002 81.21000000000001 34.699999999999925
  endloop
endfacet
facet normal 0.0 0.0 -1.0
  outer loop
    vertex 111.77403750000002 81.21000000000001 34.699999999999925
    vertex 111.77403750000002 79.21000000000002 34.699999999999925
    vertex 103.77403750000003 81.21000000000001 34.699999999999925
  endloop
endfacet
facet normal 0.0 0.0 -1.0
  outer loop
    vertex 103.77403750000003 79.21000000000002 34.699999999999925
    vertex 103.77403750000003 81.21000000000001 34.699999999999925
    vertex 111.77403750000002 79.21000000000002 34.699999999999925
  endloop
endfacet
facet normal 0.0 0.0 1.0
  outer loop
    vertex 111.77403750000002 81.21000000000001 36.699999999999925
    vertex 111.77403750000002 83.21000000000001 36.699999999999925
    vertex 103.77403750000003 81.21000000000001 36.699999999999925
  endloop
endfacet
facet normal 0.0 0.0 1.0
  outer loop
    vertex 103.77403750000003 83.21000000000001 36.699999999999925
    vertex 103.77403750000003 81.21000000000001 36.699999999999925
    vertex 111.77403750000002 83.21000000000001 36.699999999999925
  endloop
endfacet
facet normal 0.0 1.0 0.0
  outer loop
    vertex 111.77403750000002 81.21000000000001 36.699999999999925
    vertex 103.77403750000003 81.21000000000001 36.699999999999925
    vertex 111.77403750000002 81.21000000000001 40.69999999999994
  endloop
endfacet
facet normal 0.0 1.0 0.0
  outer loop
    vertex 103.77403750000003 81.21000000000001 40.69999999999994
    vertex 111.77403750000002 81.21000000000001 40.69999999999994
    vertex 103.77403750000003 81.21000000000001 36.699999999999925
  endloop
endfacet
facet normal -2.0749797430996126e-30 7.124125850647335e-15 1.0
  outer loop
    vertex 108.27403750000002 78.21000000000001 40.69999999999996
    vertex 108.27403750000002 79.21000000000001 40.69999999999996
    vertex 107.27403750000002 78.21000000000001 40.69999999999996
  endloop
endfacet
facet normal -2.0749797430996126e-30 7.124125850647335e-15 1.0
  outer loop
    vertex 111.77403750000002 79.21000000000002 40.69999999999994
    vertex 111.77403750000002 81.21000000000001 40.69999999999994
    vertex 108.27403750000002 79.21000000000001 40.69999999999996
  endloop
endfacet
facet normal -2.0749797430996126e-30 7.124125850647335e-15 1.0
  outer loop
    vertex 103.77403750000003 81.21000000000001 40.69999999999994
    vertex 108.27403750000002 79.21000000000001 40.69999999999996
    vertex 111.77403750000002 81.21000000000001 40.69999999999994
  endloop
endfacet
facet normal -2.0749797430996126e-30 7.124125850647335e-15 1.0
  outer loop
    vertex 107.27403750000002 79.21000000000001 40.69999999999996
    vertex 108.27403750000002 79.21000000000001 40.69999999999996
    vertex 103.77403750000003 81.21000000000001 40.69999999999994
  endloop
endfacet
facet normal -2.0749797430996126e-30 7.124125850647335e-15 1.0
  outer loop
    vertex 107.27403750000002 78.21000000000001 40.69999999999996
    vertex 108.27403750000002 79.21000000000001 40.69999999999996
    vertex 107.27403750000002 79.21000000000001 40.69999999999996
  endloop
endfacet
facet normal -2.0749797430996126e-30 7.124125850647335e-15 1.0
  outer loop
    vertex 103.77403750000003 79.21000000000002 40.69999999999994
    vertex 107.27403750000002 79.21000000000001 40.69999999999996
    vertex 103.77403750000003 81.21000000000001 40.69999999999994
  endloop
endfacet
facet normal -1.8927281605436748e-30 -1.0 -4.177728122293155e-16
  outer loop
    vertex 111.77403750000002 79.21000000000002 34.699999999999925
    vertex 107.27403750000002 79.21000000000001 36.69999999999991
    vertex 103.77403750000003 79.21000000000002 34.699999999999925
  endloop
endfacet
facet normal -1.8927281605436748e-30 -1.0 -4.177728122293155e-16
  outer loop
    vertex 103.77403750000003 79.21000000000002 40.69999999999994
    vertex 103.77403750000003 79.21000000000002 34.699999999999925
    vertex 107.27403750000002 79.21000000000001 36.69999999999991
  endloop
endfacet
facet normal -1.8927281605436748e-30 -1.0 -4.177728122293155e-16
  outer loop
    vertex 107.27403750000002 79.21000000000001 40.69999999999996
    vertex 103.77403750000003 79.21000000000002 40.69999999999994
    vertex 107.27403750000002 79.21000000000001 36.69999999999991
  endloop
endfacet
facet normal -1.8927281605436748e-30 -1.0 -4.177728122293155e-16
  outer loop
    vertex 111.77403750000002 79.21000000000002 40.69999999999994
    vertex 108.27403750000002 79.21000000000001 36.69999999999991
    vertex 111.77403750000002 79.21000000000002 34.699999999999925
  endloop
endfacet
facet normal -1.8927281605436748e-30 -1.0 -4.177728122293155e-16
  outer loop
    vertex 107.27403750000002 79.21000000000001 36.69999999999991
    vertex 111.77403750000002 79.21000000000002 34.699999999999925
    vertex 108.27403750000002 79.21000000000001 36.69999999999991
  endloop
endfacet
facet normal -1.8927281605436748e-30 -1.0 -4.177728122293155e-16
  outer loop
    vertex 108.27403750000002 79.21000000000001 40.69999999999996
    vertex 108.27403750000002 79.21000000000001 36.69999999999991
    vertex 111.77403750000002 79.21000000000002 40.69999999999994
  endloop
endfacet
facet normal -1.0 0.0 0.0
  outer loop
    vertex 107.27403750000002 79.21000000000001 36.69999999999991
    vertex 107.27403750000002 78.21000000000001 40.69999999999996
    vertex 107.27403750000002 79.21000000000001 40.69999999999996
  endloop
endfacet
facet normal 1.0 0.0 0.0
  outer loop
    vertex 108.27403750000002 79.21000000000001 40.69999999999996
    vertex 108.27403750000002 78.21000000000001 40.69999999999996
    vertex 108.27403750000002 79.21000000000001 36.69999999999991
  endloop
endfacet
facet normal -0.0 -0.9701425001453328 -0.24253562503632975
  outer loop
    vertex 107.27403750000002 79.21000000000001 36.69999999999991
    vertex 108.27403750000002 79.21000000000001 36.69999999999991
    vertex 107.27403750000002 78.21000000000001 40.69999999999996
  endloop
endfacet
facet normal -0.0 -0.9701425001453328 -0.24253562503632975
  outer loop
    vertex 108.27403750000002 78.21000000000001 40.69999999999996
    vertex 107.27403750000002 78.21000000000001 40.69999999999996
    vertex 108.27403750000002 79.21000000000001 36.69999999999991
  endloop
endfacet
endsolid kapture-case
