solid kapture-case
facet normal 0.0 0.0 1.0
  outer loop
    vertex 145.43801249999999 1.9499999999999478 42.60999999999997
    vertex 2.005962499999793 81.66870199999998 42.60999999999997
    vertex 2.0059624999997925 1.9499999999999478 42.60999999999997
  endloop
endfacet
facet normal 0.0 0.0 1.0
  outer loop
    vertex 2.005962499999793 81.66870199999998 42.60999999999997
    vertex 145.43801249999999 1.9499999999999478 42.60999999999997
    vertex 145.43801249999999 81.66870199999998 42.60999999999997
  endloop
endfacet
facet normal 0.0 0.0 -1.0
  outer loop
    vertex 2.005962499999793 81.66870199999998 40.60999999999998
    vertex 69.95607238085155 43.097094497506355 40.60999999999998
    vertex 69.75110028444045 42.078525146802086 40.60999999999998
  endloop
endfacet
facet normal 0.0 0.0 -1.0
  outer loop
    vertex 69.95607238085155 43.097094497506355 40.60999999999998
    vertex 2.005962499999793 81.66870199999998 40.60999999999998
    vertex 70.41768536916362 44.02790625695232 40.60999999999998
  endloop
endfacet
facet normal 0.0 0.0 -1.0
  outer loop
    vertex 70.41768536916362 44.02790625695232 40.60999999999998
    vertex 2.005962499999793 81.66870199999998 40.60999999999998
    vertex 71.10448108707473 44.80752714197289 40.60999999999998
  endloop
endfacet
facet normal 0.0 0.0 -1.0
  outer loop
    vertex 71.10448108707473 44.80752714197289 40.60999999999998
    vertex 2.005962499999793 81.66870199999998 40.60999999999998
    vertex 71.9696555413928 45.38282727763835 40.60999999999998
  endloop
endfacet
facet normal 0.0 0.0 -1.0
  outer loop
    vertex 71.9696555413928 45.38282727763835 40.60999999999998
    vertex 2.005962499999793 81.66870199999998 40.60999999999998
    vertex 145.43801249999999 81.66870199999998 40.60999999999998
  endloop
endfacet
facet normal 0.0 0.0 -1.0
  outer loop
    vertex 71.9696555413928 45.38282727763835 40.60999999999998
    vertex 145.43801249999999 81.66870199999998 40.60999999999998
    vertex 72.95424852282447 45.71460091043152 40.60999999999998
  endloop
endfacet
facet normal 0.0 0.0 -1.0
  outer loop
    vertex 72.95424852282447 45.71460091043152 40.60999999999998
    vertex 145.43801249999999 81.66870199999998 40.60999999999998
    vertex 73.99116164680201 45.7802382155594 40.60999999999998
  endloop
endfacet
facet normal 0.0 0.0 -1.0
  outer loop
    vertex 73.99116164680201 45.7802382155594 40.60999999999998
    vertex 145.43801249999999 81.66870199999998 40.60999999999998
    vertex 75.00973099750628 45.5752661191483 40.60999999999998
  endloop
endfacet
facet normal 0.0 0.0 -1.0
  outer loop
    vertex 75.00973099750628 45.5752661191483 40.60999999999998
    vertex 145.43801249999999 81.66870199999998 40.60999999999998
    vertex 75.94054275695224 45.11365313083623 40.60999999999998
  endloop
endfacet
facet normal 0.0 0.0 -1.0
  outer loop
    vertex 75.94054275695224 45.11365313083623 40.60999999999998
    vertex 145.43801249999999 81.66870199999998 40.60999999999998
    vertex 76.72016364197282 44.42685741292512 40.60999999999998
  endloop
endfacet
facet normal 0.0 0.0 -1.0
  outer loop
    vertex 76.72016364197282 44.42685741292512 40.60999999999998
    vertex 145.43801249999999 81.66870199999998 40.60999999999998
    vertex 77.29546377763828 43.561682958607044 40.60999999999998
  endloop
endfacet
facet normal 0.0 0.0 -1.0
  outer loop
    vertex 77.29546377763828 43.561682958607044 40.60999999999998
    vertex 145.43801249999999 81.66870199999998 40.60999999999998
    vertex 77.62723741043145 42.57708997717537 40.60999999999998
  endloop
endfacet
facet normal 0.0 0.0 -1.0
  outer loop
    vertex 77.62723741043145 42.57708997717537 40.60999999999998
    vertex 145.43801249999999 81.66870199999998 40.60999999999998
    vertex 77.69287471555931 41.54017685319784 40.60999999999998
  endloop
endfacet
facet normal 0.0 0.0 -1.0
  outer loop
    vertex 2.0059624999997925 1.9499999999999478 40.60999999999998
    vertex 72.43424400249349 38.04343588085163 40.60999999999998
    vertex 145.43801249999999 1.9499999999999478 40.60999999999998
  endloop
endfacet
facet normal 0.0 0.0 -1.0
  outer loop
    vertex 72.43424400249349 38.04343588085163 40.60999999999998
    vertex 2.0059624999997925 1.9499999999999478 40.60999999999998
    vertex 71.50343224304753 38.5050488691637 40.60999999999998
  endloop
endfacet
facet normal 0.0 0.0 -1.0
  outer loop
    vertex 71.50343224304753 38.5050488691637 40.60999999999998
    vertex 2.0059624999997925 1.9499999999999478 40.60999999999998
    vertex 2.005962499999793 81.66870199999998 40.60999999999998
  endloop
endfacet
facet normal 0.0 0.0 -1.0
  outer loop
    vertex 71.50343224304753 38.5050488691637 40.60999999999998
    vertex 2.005962499999793 81.66870199999998 40.60999999999998
    vertex 70.72381135802695 39.191844587074804 40.60999999999998
  endloop
endfacet
facet normal 0.0 0.0 -1.0
  outer loop
    vertex 70.72381135802695 39.191844587074804 40.60999999999998
    vertex 2.005962499999793 81.66870199999998 40.60999999999998
    vertex 70.14851122236149 40.057019041392884 40.60999999999998
  endloop
endfacet
facet normal 0.0 0.0 -1.0
  outer loop
    vertex 70.14851122236149 40.057019041392884 40.60999999999998
    vertex 2.005962499999793 81.66870199999998 40.60999999999998
    vertex 69.81673758956832 41.04161202282456 40.60999999999998
  endloop
endfacet
facet normal 0.0 0.0 -1.0
  outer loop
    vertex 69.81673758956832 41.04161202282456 40.60999999999998
    vertex 2.005962499999793 81.66870199999998 40.60999999999998
    vertex 69.75110028444045 42.078525146802086 40.60999999999998
  endloop
endfacet
facet normal 0.0 0.0 -1.0
  outer loop
    vertex 145.43801249999999 1.9499999999999478 40.60999999999998
    vertex 72.43424400249349 38.04343588085163 40.60999999999998
    vertex 73.45281335319777 37.83846378444053 40.60999999999998
  endloop
endfacet
facet normal 0.0 0.0 -1.0
  outer loop
    vertex 145.43801249999999 1.9499999999999478 40.60999999999998
    vertex 73.45281335319777 37.83846378444053 40.60999999999998
    vertex 74.4897264771753 37.90410108956841 40.60999999999998
  endloop
endfacet
facet normal 0.0 0.0 -1.0
  outer loop
    vertex 145.43801249999999 1.9499999999999478 40.60999999999998
    vertex 74.4897264771753 37.90410108956841 40.60999999999998
    vertex 75.47431945860697 38.23587472236158 40.60999999999998
  endloop
endfacet
facet normal 0.0 0.0 -1.0
  outer loop
    vertex 145.43801249999999 1.9499999999999478 40.60999999999998
    vertex 75.47431945860697 38.23587472236158 40.60999999999998
    vertex 76.33949391292505 38.81117485802704 40.60999999999998
  endloop
endfacet
facet normal 0.0 0.0 -1.0
  outer loop
    vertex 145.43801249999999 1.9499999999999478 40.60999999999998
    vertex 76.33949391292505 38.81117485802704 40.60999999999998
    vertex 77.02628963083615 39.59079574304761 40.60999999999998
  endloop
endfacet
facet normal 0.0 0.0 -1.0
  outer loop
    vertex 145.43801249999999 1.9499999999999478 40.60999999999998
    vertex 77.02628963083615 39.59079574304761 40.60999999999998
    vertex 77.48790261914822 40.52160750249357 40.60999999999998
  endloop
endfacet
facet normal 0.0 0.0 -1.0
  outer loop
    vertex 145.43801249999999 1.9499999999999478 40.60999999999998
    vertex 77.48790261914822 40.52160750249357 40.60999999999998
    vertex 77.69287471555931 41.54017685319784 40.60999999999998
  endloop
endfacet
facet normal 0.0 0.0 -1.0
  outer loop
    vertex 145.43801249999999 1.9499999999999478 40.60999999999998
    vertex 77.69287471555931 41.54017685319784 40.60999999999998
    vertex 145.43801249999999 81.66870199999998 40.60999999999998
  endloop
endfacet
facet normal 0.0 1.0 0.0
  outer loop
    vertex 2.005962499999793 81.66870199999998 42.60999999999997
    vertex 145.43801249999999 81.66870199999998 40.60999999999998
    vertex 2.005962499999793 81.66870199999998 40.60999999999998
  endloop
endfacet
facet normal 0.0 1.0 0.0
  outer loop
    vertex 145.43801249999999 81.66870199999998 40.60999999999998
    vertex 2.005962499999793 81.66870199999998 42.60999999999997
    vertex 145.43801249999999 81.66870199999998 42.60999999999997
  endloop
endfacet
facet normal -1.0 8.6601094329153e-18 0.0
  outer loop
    vertex 2.005962499999793 81.66870199999998 42.60999999999997
    vertex 2.0059624999997925 1.9499999999999478 40.60999999999998
    vertex 2.0059624999997925 1.9499999999999478 42.60999999999997
  endloop
endfacet
facet normal -1.0 8.6601094329153e-18 0.0
  outer loop
    vertex 2.0059624999997925 1.9499999999999478 40.60999999999998
    vertex 2.005962499999793 81.66870199999998 42.60999999999997
    vertex 2.005962499999793 81.66870199999998 40.60999999999998
  endloop
endfacet
facet normal 0.0 -1.0 0.0
  outer loop
    vertex 145.43801249999999 1.9499999999999478 42.60999999999997
    vertex 2.0059624999997925 1.9499999999999478 40.60999999999998
    vertex 145.43801249999999 1.9499999999999478 40.60999999999998
  endloop
endfacet
facet normal 0.0 -1.0 0.0
  outer loop
    vertex 2.0059624999997925 1.9499999999999478 40.60999999999998
    vertex 145.43801249999999 1.9499999999999478 42.60999999999997
    vertex 2.0059624999997925 1.9499999999999478 42.60999999999997
  endloop
endfacet
facet normal 1.0 0.0 0.0
  outer loop
    vertex 145.43801249999999 81.66870199999998 40.60999999999998
    vertex 145.43801249999999 1.9499999999999478 42.60999999999997
    vertex 145.43801249999999 1.9499999999999478 40.60999999999998
  endloop
endfacet
facet normal 1.0 0.0 0.0
  outer loop
    vertex 145.43801249999999 1.9499999999999478 42.60999999999997
    vertex 145.43801249999999 81.66870199999998 40.60999999999998
    vertex 145.43801249999999 81.66870199999998 42.60999999999997
  endloop
endfacet
facet normal 0.0 0.0 -1.0
  outer loop
    vertex 69.95607238085155 43.097094497506355 35.10999999999997
    vertex 69.81673758956832 41.04161202282456 35.10999999999997
    vertex 69.75110028444045 42.078525146802086 35.10999999999997
  endloop
endfacet
facet normal 0.0 0.0 -1.0
  outer loop
    vertex 69.81673758956832 41.04161202282456 35.10999999999997
    vertex 69.95607238085155 43.097094497506355 35.10999999999997
    vertex 70.14851122236149 40.057019041392884 35.10999999999997
  endloop
endfacet
facet normal 0.0 0.0 -1.0
  outer loop
    vertex 70.14851122236149 40.057019041392884 35.10999999999997
    vertex 69.95607238085155 43.097094497506355 35.10999999999997
    vertex 70.41768536916362 44.02790625695232 35.10999999999997
  endloop
endfacet
facet normal 0.0 0.0 -1.0
  outer loop
    vertex 70.14851122236149 40.057019041392884 35.10999999999997
    vertex 70.41768536916362 44.02790625695232 35.10999999999997
    vertex 70.72381135802695 39.191844587074804 35.10999999999997
  endloop
endfacet
facet normal 0.0 0.0 -1.0
  outer loop
    vertex 70.72381135802695 39.191844587074804 35.10999999999997
    vertex 70.41768536916362 44.02790625695232 35.10999999999997
    vertex 71.10448108707473 44.80752714197289 35.10999999999997
  endloop
endfacet
facet normal 0.0 0.0 -1.0
  outer loop
    vertex 70.72381135802695 39.191844587074804 35.10999999999997
    vertex 71.10448108707473 44.80752714197289 35.10999999999997
    vertex 71.50343224304753 38.5050488691637 35.10999999999997
  endloop
endfacet
facet normal 0.0 0.0 -1.0
  outer loop
    vertex 71.50343224304753 38.5050488691637 35.10999999999997
    vertex 71.10448108707473 44.80752714197289 35.10999999999997
    vertex 71.9696555413928 45.38282727763835 35.10999999999997
  endloop
endfacet
facet normal 0.0 0.0 -1.0
  outer loop
    vertex 71.50343224304753 38.5050488691637 35.10999999999997
    vertex 71.9696555413928 45.38282727763835 35.10999999999997
    vertex 72.43424400249349 38.04343588085163 35.10999999999997
  endloop
endfacet
facet normal 0.0 0.0 -1.0
  outer loop
    vertex 72.43424400249349 38.04343588085163 35.10999999999997
    vertex 71.9696555413928 45.38282727763835 35.10999999999997
    vertex 72.95424852282447 45.71460091043152 35.10999999999997
  endloop
endfacet
facet normal 0.0 0.0 -1.0
  outer loop
    vertex 72.43424400249349 38.04343588085163 35.10999999999997
    vertex 72.95424852282447 45.71460091043152 35.10999999999997
    vertex 73.45281335319777 37.83846378444053 35.10999999999997
  endloop
endfacet
facet normal 0.0 0.0 -1.0
  outer loop
    vertex 73.45281335319777 37.83846378444053 35.10999999999997
    vertex 72.95424852282447 45.71460091043152 35.10999999999997
    vertex 73.99116164680201 45.7802382155594 35.10999999999997
  endloop
endfacet
facet normal 0.0 0.0 -1.0
  outer loop
    vertex 73.45281335319777 37.83846378444053 35.10999999999997
    vertex 73.99116164680201 45.7802382155594 35.10999999999997
    vertex 74.4897264771753 37.90410108956841 35.10999999999997
  endloop
endfacet
facet normal 0.0 0.0 -1.0
  outer loop
    vertex 74.4897264771753 37.90410108956841 35.10999999999997
    vertex 73.99116164680201 45.7802382155594 35.10999999999997
    vertex 75.00973099750628 45.5752661191483 35.10999999999997
  endloop
endfacet
facet normal 0.0 0.0 -1.0
  outer loop
    vertex 74.4897264771753 37.90410108956841 35.10999999999997
    vertex 75.00973099750628 45.5752661191483 35.10999999999997
    vertex 75.47431945860697 38.23587472236158 35.10999999999997
  endloop
endfacet
facet normal 0.0 0.0 -1.0
  outer loop
    vertex 75.47431945860697 38.23587472236158 35.10999999999997
    vertex 75.00973099750628 45.5752661191483 35.10999999999997
    vertex 75.94054275695224 45.11365313083623 35.10999999999997
  endloop
endfacet
facet normal 0.0 0.0 -1.0
  outer loop
    vertex 75.47431945860697 38.23587472236158 35.10999999999997
    vertex 75.94054275695224 45.11365313083623 35.10999999999997
    vertex 76.33949391292505 38.81117485802704 35.10999999999997
  endloop
endfacet
facet normal 0.0 0.0 -1.0
  outer loop
    vertex 76.33949391292505 38.81117485802704 35.10999999999997
    vertex 75.94054275695224 45.11365313083623 35.10999999999997
    vertex 76.72016364197282 44.42685741292512 35.10999999999997
  endloop
endfacet
facet normal 0.0 0.0 -1.0
  outer loop
    vertex 76.33949391292505 38.81117485802704 35.10999999999997
    vertex 76.72016364197282 44.42685741292512 35.10999999999997
    vertex 77.02628963083615 39.59079574304761 35.10999999999997
  endloop
endfacet
facet normal 0.0 0.0 -1.0
  outer loop
    vertex 77.02628963083615 39.59079574304761 35.10999999999997
    vertex 76.72016364197282 44.42685741292512 35.10999999999997
    vertex 77.29546377763828 43.561682958607044 35.10999999999997
  endloop
endfacet
facet normal 0.0 0.0 -1.0
  outer loop
    vertex 77.02628963083615 39.59079574304761 35.10999999999997
    vertex 77.29546377763828 43.561682958607044 35.10999999999997
    vertex 77.48790261914822 40.52160750249357 35.10999999999997
  endloop
endfacet
facet normal 0.0 0.0 -1.0
  outer loop
    vertex 77.48790261914822 40.52160750249357 35.10999999999997
    vertex 77.29546377763828 43.561682958607044 35.10999999999997
    vertex 77.62723741043145 42.57708997717537 35.10999999999997
  endloop
endfacet
facet normal 0.0 0.0 -1.0
  outer loop
    vertex 77.48790261914822 40.52160750249357 35.10999999999997
    vertex 77.62723741043145 42.57708997717537 35.10999999999997
    vertex 77.69287471555931 41.54017685319784 35.10999999999997
  endloop
endfacet
facet normal -0.1972804303125351 -0.9803470976219091 -0.0
  outer loop
    vertex 73.45281335319777 37.83846378444053 40.60999999999998
    vertex 72.43424400249349 38.04343588085163 35.10999999999997
    vertex 73.45281335319777 37.83846378444053 35.10999999999997
  endloop
endfacet
facet normal -0.1972804303125351 -0.9803470976219091 -0.0
  outer loop
    vertex 72.43424400249349 38.04343588085163 35.10999999999997
    vertex 73.45281335319777 37.83846378444053 40.60999999999998
    vertex 72.43424400249349 38.04343588085163 40.60999999999998
  endloop
endfacet
facet normal -0.44429076233583137 -0.8958826477296263 -0.0
  outer loop
    vertex 72.43424400249349 38.04343588085163 40.60999999999998
    vertex 71.50343224304753 38.5050488691637 35.10999999999997
    vertex 72.43424400249349 38.04343588085163 35.10999999999997
  endloop
endfacet
facet normal -0.44429076233583137 -0.8958826477296263 -0.0
  outer loop
    vertex 71.50343224304753 38.5050488691637 35.10999999999997
    vertex 72.43424400249349 38.04343588085163 40.60999999999998
    vertex 71.50343224304753 38.5050488691637 40.60999999999998
  endloop
endfacet
facet normal -0.6610234131311354 -0.7503652759106488 -0.0
  outer loop
    vertex 71.50343224304753 38.5050488691637 40.60999999999998
    vertex 70.72381135802695 39.191844587074804 35.10999999999997
    vertex 71.50343224304753 38.5050488691637 35.10999999999997
  endloop
endfacet
facet normal -0.6610234131311354 -0.7503652759106488 -0.0
  outer loop
    vertex 70.72381135802695 39.191844587074804 35.10999999999997
    vertex 71.50343224304753 38.5050488691637 40.60999999999998
    vertex 70.72381135802695 39.191844587074804 40.60999999999998
  endloop
endfacet
facet normal -0.8327084107143954 -0.5537117505756093 -0.0
  outer loop
    vertex 70.14851122236149 40.057019041392884 40.60999999999998
    vertex 70.72381135802695 39.191844587074804 35.10999999999997
    vertex 70.72381135802695 39.191844587074804 40.60999999999998
  endloop
endfacet
facet normal -0.8327084107143954 -0.5537117505756093 -0.0
  outer loop
    vertex 70.72381135802695 39.191844587074804 35.10999999999997
    vertex 70.14851122236149 40.057019041392884 40.60999999999998
    vertex 70.14851122236149 40.057019041392884 35.10999999999997
  endloop
endfacet
facet normal -0.947645706223185 -0.3193236844907704 -0.0
  outer loop
    vertex 69.81673758956832 41.04161202282456 40.60999999999998
    vertex 70.14851122236149 40.057019041392884 35.10999999999997
    vertex 70.14851122236149 40.057019041392884 40.60999999999998
  endloop
endfacet
facet normal -0.947645706223185 -0.3193236844907704 -0.0
  outer loop
    vertex 70.14851122236149 40.057019041392884 35.10999999999997
    vertex 69.81673758956832 41.04161202282456 40.60999999999998
    vertex 69.81673758956832 41.04161202282456 35.10999999999997
  endloop
endfacet
facet normal -0.9980025129114376 -0.06317423701522511 -0.0
  outer loop
    vertex 69.75110028444045 42.078525146802086 40.60999999999998
    vertex 69.81673758956832 41.04161202282456 35.10999999999997
    vertex 69.81673758956832 41.04161202282456 40.60999999999998
  endloop
endfacet
facet normal -0.9980025129114376 -0.06317423701522511 -0.0
  outer loop
    vertex 69.81673758956832 41.04161202282456 35.10999999999997
    vertex 69.75110028444045 42.078525146802086 40.60999999999998
    vertex 69.75110028444045 42.078525146802086 35.10999999999997
  endloop
endfacet
facet normal -0.9803470976219089 0.19728043031253617 0.0
  outer loop
    vertex 69.95607238085155 43.097094497506355 40.60999999999998
    vertex 69.75110028444045 42.078525146802086 35.10999999999997
    vertex 69.75110028444045 42.078525146802086 40.60999999999998
  endloop
endfacet
facet normal -0.9803470976219089 0.19728043031253617 0.0
  outer loop
    vertex 69.75110028444045 42.078525146802086 35.10999999999997
    vertex 69.95607238085155 43.097094497506355 40.60999999999998
    vertex 69.95607238085155 43.097094497506355 35.10999999999997
  endloop
endfacet
facet normal -0.8958826477296263 0.44429076233583137 0.0
  outer loop
    vertex 70.41768536916362 44.02790625695232 40.60999999999998
    vertex 69.95607238085155 43.097094497506355 35.10999999999997
    vertex 69.95607238085155 43.097094497506355 40.60999999999998
  endloop
endfacet
facet normal -0.8958826477296263 0.44429076233583137 0.0
  outer loop
    vertex 69.95607238085155 43.097094497506355 35.10999999999997
    vertex 70.41768536916362 44.02790625695232 40.60999999999998
    vertex 70.41768536916362 44.02790625695232 35.10999999999997
  endloop
endfacet
facet normal -0.7503652759106462 0.6610234131311385 0.0
  outer loop
    vertex 71.10448108707473 44.80752714197289 40.60999999999998
    vertex 70.41768536916362 44.02790625695232 35.10999999999997
    vertex 70.41768536916362 44.02790625695232 40.60999999999998
  endloop
endfacet
facet normal -0.7503652759106462 0.6610234131311385 0.0
  outer loop
    vertex 70.41768536916362 44.02790625695232 35.10999999999997
    vertex 71.10448108707473 44.80752714197289 40.60999999999998
    vertex 71.10448108707473 44.80752714197289 35.10999999999997
  endloop
endfacet
facet normal -0.5537117505756082 0.8327084107143964 0.0
  outer loop
    vertex 71.10448108707473 44.80752714197289 40.60999999999998
    vertex 71.9696555413928 45.38282727763835 35.10999999999997
    vertex 71.10448108707473 44.80752714197289 35.10999999999997
  endloop
endfacet
facet normal -0.5537117505756082 0.8327084107143964 0.0
  outer loop
    vertex 71.9696555413928 45.38282727763835 35.10999999999997
    vertex 71.10448108707473 44.80752714197289 40.60999999999998
    vertex 71.9696555413928 45.38282727763835 40.60999999999998
  endloop
endfacet
facet normal -0.3193236844907704 0.947645706223185 0.0
  outer loop
    vertex 71.9696555413928 45.38282727763835 40.60999999999998
    vertex 72.95424852282447 45.71460091043152 35.10999999999997
    vertex 71.9696555413928 45.38282727763835 35.10999999999997
  endloop
endfacet
facet normal -0.3193236844907704 0.947645706223185 0.0
  outer loop
    vertex 72.95424852282447 45.71460091043152 35.10999999999997
    vertex 71.9696555413928 45.38282727763835 40.60999999999998
    vertex 72.95424852282447 45.71460091043152 40.60999999999998
  endloop
endfacet
facet normal -0.06317423701523017 0.9980025129114373 0.0
  outer loop
    vertex 72.95424852282447 45.71460091043152 40.60999999999998
    vertex 73.99116164680201 45.7802382155594 35.10999999999997
    vertex 72.95424852282447 45.71460091043152 35.10999999999997
  endloop
endfacet
facet normal -0.06317423701523017 0.9980025129114373 0.0
  outer loop
    vertex 73.99116164680201 45.7802382155594 35.10999999999997
    vertex 72.95424852282447 45.71460091043152 40.60999999999998
    vertex 73.99116164680201 45.7802382155594 40.60999999999998
  endloop
endfacet
facet normal 0.19728043031253722 0.9803470976219087 0.0
  outer loop
    vertex 73.99116164680201 45.7802382155594 40.60999999999998
    vertex 75.00973099750628 45.5752661191483 35.10999999999997
    vertex 73.99116164680201 45.7802382155594 35.10999999999997
  endloop
endfacet
facet normal 0.19728043031253722 0.9803470976219087 0.0
  outer loop
    vertex 75.00973099750628 45.5752661191483 35.10999999999997
    vertex 73.99116164680201 45.7802382155594 40.60999999999998
    vertex 75.00973099750628 45.5752661191483 40.60999999999998
  endloop
endfacet
facet normal 0.44429076233583137 0.8958826477296263 0.0
  outer loop
    vertex 75.00973099750628 45.5752661191483 40.60999999999998
    vertex 75.94054275695224 45.11365313083623 35.10999999999997
    vertex 75.00973099750628 45.5752661191483 35.10999999999997
  endloop
endfacet
facet normal 0.44429076233583137 0.8958826477296263 0.0
  outer loop
    vertex 75.94054275695224 45.11365313083623 35.10999999999997
    vertex 75.00973099750628 45.5752661191483 40.60999999999998
    vertex 75.94054275695224 45.11365313083623 40.60999999999998
  endloop
endfacet
facet normal 0.6610234131311354 0.7503652759106488 0.0
  outer loop
    vertex 75.94054275695224 45.11365313083623 40.60999999999998
    vertex 76.72016364197282 44.42685741292512 35.10999999999997
    vertex 75.94054275695224 45.11365313083623 35.10999999999997
  endloop
endfacet
facet normal 0.6610234131311354 0.7503652759106488 0.0
  outer loop
    vertex 76.72016364197282 44.42685741292512 35.10999999999997
    vertex 75.94054275695224 45.11365313083623 40.60999999999998
    vertex 76.72016364197282 44.42685741292512 40.60999999999998
  endloop
endfacet
facet normal 0.8327084107143954 0.5537117505756093 0.0
  outer loop
    vertex 76.72016364197282 44.42685741292512 35.10999999999997
    vertex 77.29546377763828 43.561682958607044 40.60999999999998
    vertex 77.29546377763828 43.561682958607044 35.10999999999997
  endloop
endfacet
facet normal 0.8327084107143954 0.5537117505756093 0.0
  outer loop
    vertex 77.29546377763828 43.561682958607044 40.60999999999998
    vertex 76.72016364197282 44.42685741292512 35.10999999999997
    vertex 76.72016364197282 44.42685741292512 40.60999999999998
  endloop
endfacet
facet normal 0.947645706223185 0.3193236844907704 0.0
  outer loop
    vertex 77.29546377763828 43.561682958607044 35.10999999999997
    vertex 77.62723741043145 42.57708997717537 40.60999999999998
    vertex 77.62723741043145 42.57708997717537 35.10999999999997
  endloop
endfacet
facet normal 0.947645706223185 0.3193236844907704 0.0
  outer loop
    vertex 77.62723741043145 42.57708997717537 40.60999999999998
    vertex 77.29546377763828 43.561682958607044 35.10999999999997
    vertex 77.29546377763828 43.561682958607044 40.60999999999998
  endloop
endfacet
facet normal 0.9980025129114376 0.06317423701522511 0.0
  outer loop
    vertex 77.62723741043145 42.57708997717537 35.10999999999997
    vertex 77.69287471555931 41.54017685319784 40.60999999999998
    vertex 77.69287471555931 41.54017685319784 35.10999999999997
  endloop
endfacet
facet normal 0.9980025129114376 0.06317423701522511 0.0
  outer loop
    vertex 77.69287471555931 41.54017685319784 40.60999999999998
    vertex 77.62723741043145 42.57708997717537 35.10999999999997
    vertex 77.62723741043145 42.57708997717537 40.60999999999998
  endloop
endfacet
facet normal 0.9803470976219089 -0.19728043031253617 0.0
  outer loop
    vertex 77.69287471555931 41.54017685319784 35.10999999999997
    vertex 77.48790261914822 40.52160750249357 40.60999999999998
    vertex 77.48790261914822 40.52160750249357 35.10999999999997
  endloop
endfacet
facet normal 0.9803470976219089 -0.19728043031253617 0.0
  outer loop
    vertex 77.48790261914822 40.52160750249357 40.60999999999998
    vertex 77.69287471555931 41.54017685319784 35.10999999999997
    vertex 77.69287471555931 41.54017685319784 40.60999999999998
  endloop
endfacet
facet normal 0.8958826477296263 -0.44429076233583137 0.0
  outer loop
    vertex 77.48790261914822 40.52160750249357 35.10999999999997
    vertex 77.02628963083615 39.59079574304761 40.60999999999998
    vertex 77.02628963083615 39.59079574304761 35.10999999999997
  endloop
endfacet
facet normal 0.8958826477296263 -0.44429076233583137 0.0
  outer loop
    vertex 77.02628963083615 39.59079574304761 40.60999999999998
    vertex 77.48790261914822 40.52160750249357 35.10999999999997
    vertex 77.48790261914822 40.52160750249357 40.60999999999998
  endloop
endfacet
facet normal 0.7503652759106515 -0.6610234131311324 0.0
  outer loop
    vertex 77.02628963083615 39.59079574304761 35.10999999999997
    vertex 76.33949391292505 38.81117485802704 40.60999999999998
    vertex 76.33949391292505 38.81117485802704 35.10999999999997
  endloop
endfacet
facet normal 0.7503652759106515 -0.6610234131311324 0.0
  outer loop
    vertex 76.33949391292505 38.81117485802704 40.60999999999998
    vertex 77.02628963083615 39.59079574304761 35.10999999999997
    vertex 77.02628963083615 39.59079574304761 40.60999999999998
  endloop
endfacet
facet normal 0.5537117505756031 -0.8327084107143996 0.0
  outer loop
    vertex 76.33949391292505 38.81117485802704 40.60999999999998
    vertex 75.47431945860697 38.23587472236158 35.10999999999997
    vertex 76.33949391292505 38.81117485802704 35.10999999999997
  endloop
endfacet
facet normal 0.5537117505756031 -0.8327084107143996 0.0
  outer loop
    vertex 75.47431945860697 38.23587472236158 35.10999999999997
    vertex 76.33949391292505 38.81117485802704 40.60999999999998
    vertex 75.47431945860697 38.23587472236158 40.60999999999998
  endloop
endfacet
facet normal 0.3193236844907704 -0.947645706223185 0.0
  outer loop
    vertex 75.47431945860697 38.23587472236158 40.60999999999998
    vertex 74.4897264771753 37.90410108956841 35.10999999999997
    vertex 75.47431945860697 38.23587472236158 35.10999999999997
  endloop
endfacet
facet normal 0.3193236844907704 -0.947645706223185 0.0
  outer loop
    vertex 74.4897264771753 37.90410108956841 35.10999999999997
    vertex 75.47431945860697 38.23587472236158 40.60999999999998
    vertex 74.4897264771753 37.90410108956841 40.60999999999998
  endloop
endfacet
facet normal 0.06317423701523087 -0.9980025129114373 0.0
  outer loop
    vertex 74.4897264771753 37.90410108956841 40.60999999999998
    vertex 73.45281335319777 37.83846378444053 35.10999999999997
    vertex 74.4897264771753 37.90410108956841 35.10999999999997
  endloop
endfacet
facet normal 0.06317423701523087 -0.9980025129114373 0.0
  outer loop
    vertex 73.45281335319777 37.83846378444053 35.10999999999997
    vertex 74.4897264771753 37.90410108956841 40.60999999999998
    vertex 73.45281335319777 37.83846378444053 40.60999999999998
  endloop
endfacet
facet normal -1.0 0.0 0.0
  outer loop
    vertex 105.95596249999979 0.29999999999994376 36.609999999999914
    vertex 105.95596249999979 2.29999999999994 36.609999999999914
    vertex 105.95596249999979 2.29999999999994 34.60999999999992
  endloop
endfacet
facet normal 0.0 -0.7071067811865476 -0.7071067811865476
  outer loop
    vertex 113.95596249999977 0.29999999999994376 36.609999999999914
    vertex 105.95596249999979 2.29999999999994 34.60999999999992
    vertex 113.95596249999977 2.29999999999994 34.60999999999992
  endloop
endfacet
facet normal 0.0 -0.7071067811865476 -0.7071067811865476
  outer loop
    vertex 105.95596249999979 2.29999999999994 34.60999999999992
    vertex 113.95596249999977 0.29999999999994376 36.609999999999914
    vertex 105.95596249999979 0.29999999999994376 36.609999999999914
  endloop
endfacet
facet normal 1.0 0.0 0.0
  outer loop
    vertex 113.95596249999977 0.29999999999994376 36.609999999999914
    vertex 113.95596249999977 2.29999999999994 34.60999999999992
    vertex 113.95596249999977 2.29999999999994 36.609999999999914
  endloop
endfacet
facet normal -1.0 0.0 0.0
  outer loop
    vertex 105.95596249999979 2.29999999999994 34.60999999999992
    vertex 105.95596249999979 4.299999999999937 40.60999999999993
    vertex 105.95596249999979 4.299999999999937 34.60999999999992
  endloop
endfacet
facet normal -1.0 0.0 0.0
  outer loop
    vertex 105.95596249999979 4.299999999999937 40.60999999999993
    vertex 105.95596249999979 2.29999999999994 34.60999999999992
    vertex 105.95596249999979 2.29999999999994 40.60999999999993
  endloop
endfacet
facet normal -1.0 0.0 0.0
  outer loop
    vertex 105.95596249999979 2.29999999999994 40.60999999999993
    vertex 105.95596249999979 2.29999999999994 34.60999999999992
    vertex 105.95596249999979 2.29999999999994 36.609999999999914
  endloop
endfacet
facet normal 1.0 0.0 0.0
  outer loop
    vertex 113.95596249999977 2.29999999999994 40.60999999999993
    vertex 113.95596249999977 4.299999999999937 34.60999999999992
    vertex 113.95596249999977 4.299999999999937 40.60999999999993
  endloop
endfacet
facet normal 1.0 0.0 0.0
  outer loop
    vertex 113.95596249999977 4.299999999999937 34.60999999999992
    vertex 113.95596249999977 2.29999999999994 40.60999999999993
    vertex 113.95596249999977 2.29999999999994 34.60999999999992
  endloop
endfacet
facet normal 1.0 0.0 0.0
  outer loop
    vertex 113.95596249999977 2.29999999999994 34.60999999999992
    vertex 113.95596249999977 2.29999999999994 40.60999999999993
    vertex 113.95596249999977 2.29999999999994 36.609999999999914
  endloop
endfacet
facet normal 0.0 0.0 -1.0
  outer loop
    vertex 105.95596249999979 2.29999999999994 34.60999999999992
    vertex 113.95596249999977 4.299999999999937 34.60999999999992
    vertex 113.95596249999977 2.29999999999994 34.60999999999992
  endloop
endfacet
facet normal 0.0 0.0 -1.0
  outer loop
    vertex 113.95596249999977 4.299999999999937 34.60999999999992
    vertex 105.95596249999979 2.29999999999994 34.60999999999992
    vertex 110.45596249999979 4.299999999999937 34.60999999999992
  endloop
endfacet
facet normal 0.0 0.0 -1.0
  outer loop
    vertex 110.45596249999979 4.299999999999937 34.60999999999992
    vertex 105.95596249999979 2.29999999999994 34.60999999999992
    vertex 109.45596249999979 4.299999999999937 34.60999999999992
  endloop
endfacet
facet normal 0.0 0.0 -1.0
  outer loop
    vertex 109.45596249999979 4.299999999999937 34.60999999999992
    vertex 105.95596249999979 2.29999999999994 34.60999999999992
    vertex 105.95596249999979 4.299999999999937 34.60999999999992
  endloop
endfacet
facet normal 0.0 0.0 1.0
  outer loop
    vertex 105.95596249999979 2.29999999999994 36.609999999999914
    vertex 113.95596249999977 0.29999999999994376 36.609999999999914
    vertex 113.95596249999977 2.29999999999994 36.609999999999914
  endloop
endfacet
facet normal 0.0 0.0 1.0
  outer loop
    vertex 113.95596249999977 0.29999999999994376 36.609999999999914
    vertex 105.95596249999979 2.29999999999994 36.609999999999914
    vertex 105.95596249999979 0.29999999999994376 36.609999999999914
  endloop
endfacet
facet normal 0.0 -1.0 0.0
  outer loop
    vertex 113.95596249999977 2.29999999999994 40.60999999999993
    vertex 105.95596249999979 2.29999999999994 36.609999999999914
    vertex 113.95596249999977 2.29999999999994 36.609999999999914
  endloop
endfacet
facet normal 0.0 -1.0 0.0
  outer loop
    vertex 105.95596249999979 2.29999999999994 36.609999999999914
    vertex 113.95596249999977 2.29999999999994 40.60999999999993
    vertex 105.95596249999979 2.29999999999994 40.60999999999993
  endloop
endfacet
facet normal 2.4035636260707144e-32 -5.583818354895615e-15 1.0
  outer loop
    vertex 109.45596249999979 6.339999999999946 40.60999999999995
    vertex 110.45596249999979 4.299999999999947 40.60999999999995
    vertex 110.45596249999979 6.339999999999946 40.60999999999995
  endloop
endfacet
facet normal 2.4035636260707144e-32 -5.583818354895615e-15 1.0
  outer loop
    vertex 110.45596249999979 4.299999999999947 40.60999999999995
    vertex 113.95596249999977 2.29999999999994 40.60999999999993
    vertex 113.95596249999977 4.299999999999937 40.60999999999993
  endloop
endfacet
facet normal 2.4035636260707144e-32 -5.583818354895615e-15 1.0
  outer loop
    vertex 113.95596249999977 2.29999999999994 40.60999999999993
    vertex 110.45596249999979 4.299999999999947 40.60999999999995
    vertex 105.95596249999979 2.29999999999994 40.60999999999993
  endloop
endfacet
facet normal 2.4035636260707144e-32 -5.583818354895615e-15 1.0
  outer loop
    vertex 105.95596249999979 2.29999999999994 40.60999999999993
    vertex 110.45596249999979 4.299999999999947 40.60999999999995
    vertex 109.45596249999979 4.299999999999947 40.60999999999995
  endloop
endfacet
facet normal 2.4035636260707144e-32 -5.583818354895615e-15 1.0
  outer loop
    vertex 109.45596249999979 4.299999999999947 40.60999999999995
    vertex 110.45596249999979 4.299999999999947 40.60999999999995
    vertex 109.45596249999979 6.339999999999946 40.60999999999995
  endloop
endfacet
facet normal 2.4035636260707144e-32 -5.583818354895615e-15 1.0
  outer loop
    vertex 105.95596249999979 2.29999999999994 40.60999999999993
    vertex 109.45596249999979 4.299999999999947 40.60999999999995
    vertex 105.95596249999979 4.299999999999937 40.60999999999993
  endloop
endfacet
facet normal 1.6114094185987986e-15 1.0 -9.399888275159641e-16
  outer loop
    vertex 110.45596249999979 4.299999999999947 40.60999999999995
    vertex 113.95596249999977 4.299999999999937 34.60999999999992
    vertex 110.45596249999979 4.299999999999937 34.60999999999992
  endloop
endfacet
facet normal 1.6114094185987986e-15 1.0 -9.399888275159641e-16
  outer loop
    vertex 113.95596249999977 4.299999999999937 34.60999999999992
    vertex 110.45596249999979 4.299999999999947 40.60999999999995
    vertex 113.95596249999977 4.299999999999937 40.60999999999993
  endloop
endfacet
facet normal -1.0 0.0 0.0
  outer loop
    vertex 109.45596249999979 4.299999999999937 34.60999999999992
    vertex 109.45596249999979 4.299999999999947 40.60999999999995
    vertex 109.45596249999979 6.339999999999946 40.60999999999995
  endloop
endfacet
facet normal 1.0 0.0 0.0
  outer loop
    vertex 110.45596249999979 4.299999999999937 34.60999999999992
    vertex 110.45596249999979 6.339999999999946 40.60999999999995
    vertex 110.45596249999979 4.299999999999947 40.60999999999995
  endloop
endfacet
facet normal -0.0 0.9467727448197129 -0.321902733238702
  outer loop
    vertex 109.45596249999979 6.339999999999946 40.60999999999995
    vertex 110.45596249999979 4.299999999999937 34.60999999999992
    vertex 109.45596249999979 4.299999999999937 34.60999999999992
  endloop
endfacet
facet normal -0.0 0.9467727448197129 -0.321902733238702
  outer loop
    vertex 110.45596249999979 4.299999999999937 34.60999999999992
    vertex 109.45596249999979 6.339999999999946 40.60999999999995
    vertex 110.45596249999979 6.339999999999946 40.60999999999995
  endloop
endfacet
facet normal -1.6114094185987986e-15 1.0 -9.399888275159641e-16
  outer loop
    vertex 105.95596249999979 4.299999999999937 40.60999999999993
    vertex 109.45596249999979 4.299999999999937 34.60999999999992
    vertex 105.95596249999979 4.299999999999937 34.60999999999992
  endloop
endfacet
facet normal -1.6114094185987986e-15 1.0 -9.399888275159641e-16
  outer loop
    vertex 109.45596249999979 4.299999999999937 34.60999999999992
    vertex 105.95596249999979 4.299999999999937 40.60999999999993
    vertex 109.45596249999979 4.299999999999947 40.60999999999995
  endloop
endfacet
facet normal -1.0 0.0 0.0
  outer loop
    vertex 33.4559624999998 0.29999999999994376 36.609999999999914
    vertex 33.4559624999998 2.29999999999994 36.609999999999914
    vertex 33.4559624999998 2.29999999999994 34.60999999999992
  endloop
endfacet
facet normal 0.0 -0.7071067811865476 -0.7071067811865476
  outer loop
    vertex 41.455962499999785 0.29999999999994376 36.609999999999914
    vertex 33.4559624999998 2.29999999999994 34.60999999999992
    vertex 41.455962499999785 2.29999999999994 34.60999999999992
  endloop
endfacet
facet normal 0.0 -0.7071067811865476 -0.7071067811865476
  outer loop
    vertex 33.4559624999998 2.29999999999994 34.60999999999992
    vertex 41.455962499999785 0.29999999999994376 36.609999999999914
    vertex 33.4559624999998 0.29999999999994376 36.609999999999914
  endloop
endfacet
facet normal 1.0 0.0 0.0
  outer loop
    vertex 41.455962499999785 0.29999999999994376 36.609999999999914
    vertex 41.455962499999785 2.29999999999994 34.60999999999992
    vertex 41.455962499999785 2.29999999999994 36.609999999999914
  endloop
endfacet
facet normal -1.0 0.0 0.0
  outer loop
    vertex 33.4559624999998 2.29999999999994 34.60999999999992
    vertex 33.4559624999998 4.299999999999937 40.60999999999993
    vertex 33.4559624999998 4.299999999999937 34.60999999999992
  endloop
endfacet
facet normal -1.0 0.0 0.0
  outer loop
    vertex 33.4559624999998 4.299999999999937 40.60999999999993
    vertex 33.4559624999998 2.29999999999994 34.60999999999992
    vertex 33.4559624999998 2.29999999999994 40.60999999999993
  endloop
endfacet
facet normal -1.0 0.0 0.0
  outer loop
    vertex 33.4559624999998 2.29999999999994 40.60999999999993
    vertex 33.4559624999998 2.29999999999994 34.60999999999992
    vertex 33.4559624999998 2.29999999999994 36.609999999999914
  endloop
endfacet
facet normal 1.0 0.0 0.0
  outer loop
    vertex 41.455962499999785 2.29999999999994 40.60999999999993
    vertex 41.455962499999785 4.299999999999937 34.60999999999992
    vertex 41.455962499999785 4.299999999999937 40.60999999999993
  endloop
endfacet
facet normal 1.0 0.0 0.0
  outer loop
    vertex 41.455962499999785 4.299999999999937 34.60999999999992
    vertex 41.455962499999785 2.29999999999994 40.60999999999993
    vertex 41.455962499999785 2.29999999999994 34.60999999999992
  endloop
endfacet
facet normal 1.0 0.0 0.0
  outer loop
    vertex 41.455962499999785 2.29999999999994 34.60999999999992
    vertex 41.455962499999785 2.29999999999994 40.60999999999993
    vertex 41.455962499999785 2.29999999999994 36.609999999999914
  endloop
endfacet
facet normal 0.0 0.0 -1.0
  outer loop
    vertex 33.4559624999998 2.29999999999994 34.60999999999992
    vertex 41.455962499999785 4.299999999999937 34.60999999999992
    vertex 41.455962499999785 2.29999999999994 34.60999999999992
  endloop
endfacet
facet normal 0.0 0.0 -1.0
  outer loop
    vertex 41.455962499999785 4.299999999999937 34.60999999999992
    vertex 33.4559624999998 2.29999999999994 34.60999999999992
    vertex 37.95596249999979 4.299999999999937 34.60999999999992
  endloop
endfacet
facet normal 0.0 0.0 -1.0
  outer loop
    vertex 37.95596249999979 4.299999999999937 34.60999999999992
    vertex 33.4559624999998 2.29999999999994 34.60999999999992
    vertex 36.95596249999979 4.299999999999937 34.60999999999992
  endloop
endfacet
facet normal 0.0 0.0 -1.0
  outer loop
    vertex 36.95596249999979 4.299999999999937 34.60999999999992
    vertex 33.4559624999998 2.29999999999994 34.60999999999992
    vertex 33.4559624999998 4.299999999999937 34.60999999999992
  endloop
endfacet
facet normal 0.0 0.0 1.0
  outer loop
    vertex 33.4559624999998 2.29999999999994 36.609999999999914
    vertex 41.455962499999785 0.29999999999994376 36.609999999999914
    vertex 41.455962499999785 2.29999999999994 36.609999999999914
  endloop
endfacet
facet normal 0.0 0.0 1.0
  outer loop
    vertex 41.455962499999785 0.29999999999994376 36.609999999999914
    vertex 33.4559624999998 2.29999999999994 36.609999999999914
    vertex 33.4559624999998 0.29999999999994376 36.609999999999914
  endloop
endfacet
facet normal 0.0 -1.0 0.0
  outer loop
    vertex 41.455962499999785 2.29999999999994 40.60999999999993
    vertex 33.4559624999998 2.29999999999994 36.609999999999914
    vertex 41.455962499999785 2.29999999999994 36.609999999999914
  endloop
endfacet
facet normal 0.0 -1.0 0.0
  outer loop
    vertex 33.4559624999998 2.29999999999994 36.609999999999914
    vertex 41.455962499999785 2.29999999999994 40.60999999999993
    vertex 33.4559624999998 2.29999999999994 40.60999999999993
  endloop
endfacet
facet normal 2.4035636260707144e-32 -5.583818354895615e-15 1.0
  outer loop
    vertex 36.95596249999979 6.339999999999946 40.60999999999995
    vertex 37.95596249999979 4.299999999999947 40.60999999999995
    vertex 37.95596249999979 6.339999999999946 40.60999999999995
  endloop
endfacet
facet normal 2.4035636260707144e-32 -5.583818354895615e-15 1.0
  outer loop
    vertex 37.95596249999979 4.299999999999947 40.60999999999995
    vertex 41.455962499999785 2.29999999999994 40.60999999999993
    vertex 41.455962499999785 4.299999999999937 40.60999999999993
  endloop
endfacet
facet normal 2.4035636260707144e-32 -5.583818354895615e-15 1.0
  outer loop
    vertex 41.455962499999785 2.29999999999994 40.60999999999993
    vertex 37.95596249999979 4.299999999999947 40.60999999999995
    vertex 33.4559624999998 2.29999999999994 40.60999999999993
  endloop
endfacet
facet normal 2.4035636260707144e-32 -5.583818354895615e-15 1.0
  outer loop
    vertex 33.4559624999998 2.29999999999994 40.60999999999993
    vertex 37.95596249999979 4.299999999999947 40.60999999999995
    vertex 36.95596249999979 4.299999999999947 40.60999999999995
  endloop
endfacet
facet normal 2.4035636260707144e-32 -5.583818354895615e-15 1.0
  outer loop
    vertex 36.95596249999979 4.299999999999947 40.60999999999995
    vertex 37.95596249999979 4.299999999999947 40.60999999999995
    vertex 36.95596249999979 6.339999999999946 40.60999999999995
  endloop
endfacet
facet normal 2.4035636260707144e-32 -5.583818354895615e-15 1.0
  outer loop
    vertex 33.4559624999998 2.29999999999994 40.60999999999993
    vertex 36.95596249999979 4.299999999999947 40.60999999999995
    vertex 33.4559624999998 4.299999999999937 40.60999999999993
  endloop
endfacet
facet normal 1.6114094185987986e-15 1.0 -9.399888275159641e-16
  outer loop
    vertex 37.95596249999979 4.299999999999947 40.60999999999995
    vertex 41.455962499999785 4.299999999999937 34.60999999999992
    vertex 37.95596249999979 4.299999999999937 34.60999999999992
  endloop
endfacet
facet normal 1.6114094185987986e-15 1.0 -9.399888275159641e-16
  outer loop
    vertex 41.455962499999785 4.299999999999937 34.60999999999992
    vertex 37.95596249999979 4.299999999999947 40.60999999999995
    vertex 41.455962499999785 4.299999999999937 40.60999999999993
  endloop
endfacet
facet normal -1.0 0.0 0.0
  outer loop
    vertex 36.95596249999979 4.299999999999937 34.60999999999992
    vertex 36.95596249999979 4.299999999999947 40.60999999999995
    vertex 36.95596249999979 6.339999999999946 40.60999999999995
  endloop
endfacet
facet normal 1.0 0.0 0.0
  outer loop
    vertex 37.95596249999979 4.299999999999937 34.60999999999992
    vertex 37.95596249999979 6.339999999999946 40.60999999999995
    vertex 37.95596249999979 4.299999999999947 40.60999999999995
  endloop
endfacet
facet normal -0.0 0.9467727448197129 -0.321902733238702
  outer loop
    vertex 36.95596249999979 6.339999999999946 40.60999999999995
    vertex 37.95596249999979 4.299999999999937 34.60999999999992
    vertex 36.95596249999979 4.299999999999937 34.60999999999992
  endloop
endfacet
facet normal -0.0 0.9467727448197129 -0.321902733238702
  outer loop
    vertex 37.95596249999979 4.299999999999937 34.60999999999992
    vertex 36.95596249999979 6.339999999999946 40.60999999999995
    vertex 37.95596249999979 6.339999999999946 40.60999999999995
  endloop
endfacet
facet normal -1.6114094185987986e-15 1.0 -9.399888275159641e-16
  outer loop
    vertex 33.4559624999998 4.299999999999937 40.60999999999993
    vertex 36.95596249999979 4.299999999999937 34.60999999999992
    vertex 33.4559624999998 4.299999999999937 34.60999999999992
  endloop
endfacet
facet normal -1.6114094185987986e-15 1.0 -9.399888275159641e-16
  outer loop
    vertex 36.95596249999979 4.299999999999937 34.60999999999992
    vertex 33.4559624999998 4.299999999999937 40.60999999999993
    vertex 36.95596249999979 4.299999999999947 40.60999999999995
  endloop
endfacet
facet normal -1.0 0.0 0.0
  outer loop
    vertex 33.4559624999998 81.35999999999997 34.60999999999992
    vertex 33.4559624999998 81.35999999999997 36.609999999999914
    vertex 33.4559624999998 83.35999999999997 36.609999999999914
  endloop
endfacet
facet normal 0.0 0.7071067811865476 -0.7071067811865476
  outer loop
    vertex 41.455962499999785 81.35999999999997 34.60999999999992
    vertex 33.4559624999998 81.35999999999997 34.60999999999992
    vertex 41.455962499999785 83.35999999999997 36.609999999999914
  endloop
endfacet
facet normal 0.0 0.7071067811865476 -0.7071067811865476
  outer loop
    vertex 33.4559624999998 83.35999999999997 36.609999999999914
    vertex 41.455962499999785 83.35999999999997 36.609999999999914
    vertex 33.4559624999998 81.35999999999997 34.60999999999992
  endloop
endfacet
facet normal 1.0 0.0 0.0
  outer loop
    vertex 41.455962499999785 81.35999999999997 36.609999999999914
    vertex 41.455962499999785 81.35999999999997 34.60999999999992
    vertex 41.455962499999785 83.35999999999997 36.609999999999914
  endloop
endfacet
facet normal -1.0 0.0 0.0
  outer loop
    vertex 33.4559624999998 79.35999999999997 34.60999999999992
    vertex 33.4559624999998 79.35999999999997 40.60999999999993
    vertex 33.4559624999998 81.35999999999997 34.60999999999992
  endloop
endfacet
facet normal -1.0 0.0 0.0
  outer loop
    vertex 33.4559624999998 81.35999999999997 40.60999999999993
    vertex 33.4559624999998 81.35999999999997 34.60999999999992
    vertex 33.4559624999998 79.35999999999997 40.60999999999993
  endloop
endfacet
facet normal -1.0 0.0 0.0
  outer loop
    vertex 33.4559624999998 81.35999999999997 36.609999999999914
    vertex 33.4559624999998 81.35999999999997 34.60999999999992
    vertex 33.4559624999998 81.35999999999997 40.60999999999993
  endloop
endfacet
facet normal 1.0 0.0 0.0
  outer loop
    vertex 41.455962499999785 79.35999999999997 40.60999999999993
    vertex 41.455962499999785 79.35999999999997 34.60999999999992
    vertex 41.455962499999785 81.35999999999997 40.60999999999993
  endloop
endfacet
facet normal 1.0 0.0 0.0
  outer loop
    vertex 41.455962499999785 81.35999999999997 34.60999999999992
    vertex 41.455962499999785 81.35999999999997 40.60999999999993
    vertex 41.455962499999785 79.35999999999997 34.60999999999992
  endloop
endfacet
facet normal 1.0 0.0 0.0
  outer loop
    vertex 41.455962499999785 81.35999999999997 36.609999999999914
    vertex 41.455962499999785 81.35999999999997 40.60999999999993
    vertex 41.455962499999785 81.35999999999997 34.60999999999992
  endloop
endfacet
facet normal 0.0 0.0 -1.0
  outer loop
    vertex 41.455962499999785 81.35999999999997 34.60999999999992
    vertex 41.455962499999785 79.35999999999997 34.60999999999992
    vertex 33.4559624999998 81.35999999999997 34.60999999999992
  endloop
endfacet
facet normal 0.0 0.0 -1.0
  outer loop
    vertex 37.95596249999979 79.35999999999997 34.60999999999992
    vertex 33.4559624999998 81.35999999999997 34.60999999999992
    vertex 41.455962499999785 79.35999999999997 34.60999999999992
  endloop
endfacet
facet normal 0.0 0.0 -1.0
  outer loop
    vertex 36.95596249999979 79.35999999999997 34.60999999999992
    vertex 33.4559624999998 81.35999999999997 34.60999999999992
    vertex 37.95596249999979 79.35999999999997 34.60999999999992
  endloop
endfacet
facet normal 0.0 0.0 -1.0
  outer loop
    vertex 33.4559624999998 79.35999999999997 34.60999999999992
    vertex 33.4559624999998 81.35999999999997 34.60999999999992
    vertex 36.95596249999979 79.35999999999997 34.60999999999992
  endloop
endfacet
facet normal 0.0 0.0 1.0
  outer loop
    vertex 41.455962499999785 81.35999999999997 36.609999999999914
    vertex 41.455962499999785 83.35999999999997 36.609999999999914
    vertex 33.4559624999998 81.35999999999997 36.609999999999914
  endloop
endfacet
facet normal 0.0 0.0 1.0
  outer loop
    vertex 33.4559624999998 83.35999999999997 36.609999999999914
    vertex 33.4559624999998 81.35999999999997 36.609999999999914
    vertex 41.455962499999785 83.35999999999997 36.609999999999914
  endloop
endfacet
facet normal 0.0 1.0 0.0
  outer loop
    vertex 41.455962499999785 81.35999999999997 36.609999999999914
    vertex 33.4559624999998 81.35999999999997 36.609999999999914
    vertex 41.455962499999785 81.35999999999997 40.60999999999993
  endloop
endfacet
facet normal 0.0 1.0 0.0
  outer loop
    vertex 33.4559624999998 81.35999999999997 40.60999999999993
    vertex 41.455962499999785 81.35999999999997 40.60999999999993
    vertex 33.4559624999998 81.35999999999997 36.609999999999914
  endloop
endfacet
facet normal 2.4035636260707144e-32 5.583818354895615e-15 1.0
  outer loop
    vertex 37.95596249999979 77.31999999999995 40.60999999999995
    vertex 37.95596249999979 79.35999999999996 40.60999999999995
    vertex 36.95596249999979 77.31999999999995 40.60999999999995
  endloop
endfacet
facet normal 2.4035636260707144e-32 5.583818354895615e-15 1.0
  outer loop
    vertex 41.455962499999785 79.35999999999997 40.60999999999993
    vertex 41.455962499999785 81.35999999999997 40.60999999999993
    vertex 37.95596249999979 79.35999999999996 40.60999999999995
  endloop
endfacet
facet normal 2.4035636260707144e-32 5.583818354895615e-15 1.0
  outer loop
    vertex 33.4559624999998 81.35999999999997 40.60999999999993
    vertex 37.95596249999979 79.35999999999996 40.60999999999995
    vertex 41.455962499999785 81.35999999999997 40.60999999999993
  endloop
endfacet
facet normal 2.4035636260707144e-32 5.583818354895615e-15 1.0
  outer loop
    vertex 36.95596249999979 79.35999999999996 40.60999999999995
    vertex 37.95596249999979 79.35999999999996 40.60999999999995
    vertex 33.4559624999998 81.35999999999997 40.60999999999993
  endloop
endfacet
facet normal 2.4035636260707144e-32 5.583818354895615e-15 1.0
  outer loop
    vertex 36.95596249999979 77.31999999999995 40.60999999999995
    vertex 37.95596249999979 79.35999999999996 40.60999999999995
    vertex 36.95596249999979 79.35999999999996 40.60999999999995
  endloop
endfacet
facet normal 2.4035636260707144e-32 5.583818354895615e-15 1.0
  outer loop
    vertex 33.4559624999998 79.35999999999997 40.60999999999993
    vertex 36.95596249999979 79.35999999999996 40.60999999999995
    vertex 33.4559624999998 81.35999999999997 40.60999999999993
  endloop
endfacet
facet normal 1.6114094185987986e-15 -1.0 -9.399888275159641e-16
  outer loop
    vertex 37.95596249999979 79.35999999999997 34.60999999999992
    vertex 41.455962499999785 79.35999999999997 34.60999999999992
    vertex 37.95596249999979 79.35999999999996 40.60999999999995
  endloop
endfacet
facet normal 1.6114094185987986e-15 -1.0 -9.399888275159641e-16
  outer loop
    vertex 41.455962499999785 79.35999999999997 40.60999999999993
    vertex 37.95596249999979 79.35999999999996 40.60999999999995
    vertex 41.455962499999785 79.35999999999997 34.60999999999992
  endloop
endfacet
facet normal -1.0 0.0 0.0
  outer loop
    vertex 36.95596249999979 77.31999999999995 40.60999999999995
    vertex 36.95596249999979 79.35999999999996 40.60999999999995
    vertex 36.95596249999979 79.35999999999997 34.60999999999992
  endloop
endfacet
facet normal 1.0 0.0 0.0
  outer loop
    vertex 37.95596249999979 79.35999999999996 40.60999999999995
    vertex 37.95596249999979 77.31999999999995 40.60999999999995
    vertex 37.95596249999979 79.35999999999997 34.60999999999992
  endloop
endfacet
facet normal -0.0 -0.9467727448197129 -0.321902733238702
  outer loop
    vertex 36.95596249999979 79.35999999999997 34.60999999999992
    vertex 37.95596249999979 79.35999999999997 34.60999999999992
    vertex 36.95596249999979 77.31999999999995 40.60999999999995
  endloop
endfacet
facet normal -0.0 -0.9467727448197129 -0.321902733238702
  outer loop
    vertex 37.95596249999979 77.31999999999995 40.60999999999995
    vertex 36.95596249999979 77.31999999999995 40.60999999999995
    vertex 37.95596249999979 79.35999999999997 34.60999999999992
  endloop
endfacet
facet normal -1.6114094185987986e-15 -1.0 -9.399888275159641e-16
  outer loop
    vertex 33.4559624999998 79.35999999999997 34.60999999999992
    vertex 36.95596249999979 79.35999999999997 34.60999999999992
    vertex 33.4559624999998 79.35999999999997 40.60999999999993
  endloop
endfacet
facet normal -1.6114094185987986e-15 -1.0 -9.399888275159641e-16
  outer loop
    vertex 36.95596249999979 79.35999999999996 40.60999999999995
    vertex 33.4559624999998 79.35999999999997 40.60999999999993
    vertex 36.95596249999979 79.35999999999997 34.60999999999992
  endloop
endfacet
facet normal -1.0 0.0 0.0
  outer loop
    vertex 105.95596249999979 81.35999999999997 34.60999999999994
    vertex 105.95596249999979 81.35999999999997 36.609999999999935
    vertex 105.95596249999979 83.35999999999997 36.609999999999935
  endloop
endfacet
facet normal 0.0 0.7071067811865476 -0.7071067811865476
  outer loop
    vertex 113.95596249999977 81.35999999999997 34.60999999999994
    vertex 105.95596249999979 81.35999999999997 34.60999999999994
    vertex 113.95596249999977 83.35999999999997 36.609999999999935
  endloop
endfacet
facet normal 0.0 0.7071067811865476 -0.7071067811865476
  outer loop
    vertex 105.95596249999979 83.35999999999997 36.609999999999935
    vertex 113.95596249999977 83.35999999999997 36.609999999999935
    vertex 105.95596249999979 81.35999999999997 34.60999999999994
  endloop
endfacet
facet normal 1.0 0.0 0.0
  outer loop
    vertex 113.95596249999977 81.35999999999997 36.609999999999935
    vertex 113.95596249999977 81.35999999999997 34.60999999999994
    vertex 113.95596249999977 83.35999999999997 36.609999999999935
  endloop
endfacet
facet normal -1.0 0.0 0.0
  outer loop
    vertex 105.95596249999979 79.35999999999997 34.60999999999994
    vertex 105.95596249999979 79.35999999999997 40.60999999999995
    vertex 105.95596249999979 81.35999999999997 34.60999999999994
  endloop
endfacet
facet normal -1.0 0.0 0.0
  outer loop
    vertex 105.95596249999979 81.35999999999997 40.60999999999995
    vertex 105.95596249999979 81.35999999999997 34.60999999999994
    vertex 105.95596249999979 79.35999999999997 40.60999999999995
  endloop
endfacet
facet normal -1.0 0.0 0.0
  outer loop
    vertex 105.95596249999979 81.35999999999997 36.609999999999935
    vertex 105.95596249999979 81.35999999999997 34.60999999999994
    vertex 105.95596249999979 81.35999999999997 40.60999999999995
  endloop
endfacet
facet normal 1.0 0.0 0.0
  outer loop
    vertex 113.95596249999977 79.35999999999997 40.60999999999995
    vertex 113.95596249999977 79.35999999999997 34.60999999999994
    vertex 113.95596249999977 81.35999999999997 40.60999999999995
  endloop
endfacet
facet normal 1.0 0.0 0.0
  outer loop
    vertex 113.95596249999977 81.35999999999997 34.60999999999994
    vertex 113.95596249999977 81.35999999999997 40.60999999999995
    vertex 113.95596249999977 79.35999999999997 34.60999999999994
  endloop
endfacet
facet normal 1.0 0.0 0.0
  outer loop
    vertex 113.95596249999977 81.35999999999997 36.609999999999935
    vertex 113.95596249999977 81.35999999999997 40.60999999999995
    vertex 113.95596249999977 81.35999999999997 34.60999999999994
  endloop
endfacet
facet normal 0.0 0.0 -1.0
  outer loop
    vertex 113.95596249999977 81.35999999999997 34.60999999999994
    vertex 113.95596249999977 79.35999999999997 34.60999999999994
    vertex 105.95596249999979 81.35999999999997 34.60999999999994
  endloop
endfacet
facet normal 0.0 0.0 -1.0
  outer loop
    vertex 110.45596249999979 79.35999999999997 34.60999999999994
    vertex 105.95596249999979 81.35999999999997 34.60999999999994
    vertex 113.95596249999977 79.35999999999997 34.60999999999994
  endloop
endfacet
facet normal 0.0 0.0 -1.0
  outer loop
    vertex 109.45596249999979 79.35999999999997 34.60999999999994
    vertex 105.95596249999979 81.35999999999997 34.60999999999994
    vertex 110.45596249999979 79.35999999999997 34.60999999999994
  endloop
endfacet
facet normal 0.0 0.0 -1.0
  outer loop
    vertex 105.95596249999979 79.35999999999997 34.60999999999994
    vertex 105.95596249999979 81.35999999999997 34.60999999999994
    vertex 109.45596249999979 79.35999999999997 34.60999999999994
  endloop
endfacet
facet normal 0.0 0.0 1.0
  outer loop
    vertex 113.95596249999977 81.35999999999997 36.609999999999935
    vertex 113.95596249999977 83.35999999999997 36.609999999999935
    vertex 105.95596249999979 81.35999999999997 36.609999999999935
  endloop
endfacet
facet normal 0.0 0.0 1.0
  outer loop
    vertex 105.95596249999979 83.35999999999997 36.609999999999935
    vertex 105.95596249999979 81.35999999999997 36.609999999999935
    vertex 113.95596249999977 83.35999999999997 36.609999999999935
  endloop
endfacet
facet normal 0.0 1.0 0.0
  outer loop
    vertex 113.95596249999977 81.35999999999997 36.609999999999935
    vertex 105.95596249999979 81.35999999999997 36.609999999999935
    vertex 113.95596249999977 81.35999999999997 40.60999999999995
  endloop
endfacet
facet normal 0.0 1.0 0.0
  outer loop
    vertex 105.95596249999979 81.35999999999997 40.60999999999995
    vertex 113.95596249999977 81.35999999999997 40.60999999999995
    vertex 105.95596249999979 81.35999999999997 36.609999999999935
  endloop
endfacet
facet normal 2.4035636260707144e-32 5.583818354895615e-15 1.0
  outer loop
    vertex 110.45596249999979 77.31999999999995 40.60999999999998
    vertex 110.45596249999979 79.35999999999996 40.60999999999998
    vertex 109.45596249999979 77.31999999999995 40.60999999999998
  endloop
endfacet
facet normal 2.4035636260707144e-32 5.583818354895615e-15 1.0
  outer loop
    vertex 113.95596249999977 79.35999999999997 40.60999999999995
    vertex 113.95596249999977 81.35999999999997 40.60999999999995
    vertex 110.45596249999979 79.35999999999996 40.60999999999998
  endloop
endfacet
facet normal 2.4035636260707144e-32 5.583818354895615e-15 1.0
  outer loop
    vertex 105.95596249999979 81.35999999999997 40.60999999999995
    vertex 110.45596249999979 79.35999999999996 40.60999999999998
    vertex 113.95596249999977 81.35999999999997 40.60999999999995
  endloop
endfacet
facet normal 2.4035636260707144e-32 5.583818354895615e-15 1.0
  outer loop
    vertex 109.45596249999979 79.35999999999996 40.60999999999998
    vertex 110.45596249999979 79.35999999999996 40.60999999999998
    vertex 105.95596249999979 81.35999999999997 40.60999999999995
  endloop
endfacet
facet normal 2.4035636260707144e-32 5.583818354895615e-15 1.0
  outer loop
    vertex 109.45596249999979 77.31999999999995 40.60999999999998
    vertex 110.45596249999979 79.35999999999996 40.60999999999998
    vertex 109.45596249999979 79.35999999999996 40.60999999999998
  endloop
endfacet
facet normal 2.4035636260707144e-32 5.583818354895615e-15 1.0
  outer loop
    vertex 105.95596249999979 79.35999999999997 40.60999999999995
    vertex 109.45596249999979 79.35999999999996 40.60999999999998
    vertex 105.95596249999979 81.35999999999997 40.60999999999995
  endloop
endfacet
facet normal 1.6114094185987986e-15 -1.0 -9.399888275159641e-16
  outer loop
    vertex 110.45596249999979 79.35999999999997 34.60999999999994
    vertex 113.95596249999977 79.35999999999997 34.60999999999994
    vertex 110.45596249999979 79.35999999999996 40.60999999999998
  endloop
endfacet
facet normal 1.6114094185987986e-15 -1.0 -9.399888275159641e-16
  outer loop
    vertex 113.95596249999977 79.35999999999997 40.60999999999995
    vertex 110.45596249999979 79.35999999999996 40.60999999999998
    vertex 113.95596249999977 79.35999999999997 34.60999999999994
  endloop
endfacet
facet normal -1.0 0.0 0.0
  outer loop
    vertex 109.45596249999979 77.31999999999995 40.60999999999998
    vertex 109.45596249999979 79.35999999999996 40.60999999999998
    vertex 109.45596249999979 79.35999999999997 34.60999999999994
  endloop
endfacet
facet normal 1.0 0.0 0.0
  outer loop
    vertex 110.45596249999979 79.35999999999996 40.60999999999998
    vertex 110.45596249999979 77.31999999999995 40.60999999999998
    vertex 110.45596249999979 79.35999999999997 34.60999999999994
  endloop
endfacet
facet normal -0.0 -0.9467727448197129 -0.321902733238702
  outer loop
    vertex 109.45596249999979 79.35999999999997 34.60999999999994
    vertex 110.45596249999979 79.35999999999997 34.60999999999994
    vertex 109.45596249999979 77.31999999999995 40.60999999999998
  endloop
endfacet
facet normal -0.0 -0.9467727448197129 -0.321902733238702
  outer loop
    vertex 110.45596249999979 77.31999999999995 40.60999999999998
    vertex 109.45596249999979 77.31999999999995 40.60999999999998
    vertex 110.45596249999979 79.35999999999997 34.60999999999994
  endloop
endfacet
facet normal -1.6114094185987986e-15 -1.0 -9.399888275159641e-16
  outer loop
    vertex 105.95596249999979 79.35999999999997 34.60999999999994
    vertex 109.45596249999979 79.35999999999997 34.60999999999994
    vertex 105.95596249999979 79.35999999999997 40.60999999999995
  endloop
endfacet
facet normal -1.6114094185987986e-15 -1.0 -9.399888275159641e-16
  outer loop
    vertex 109.45596249999979 79.35999999999996 40.60999999999998
    vertex 105.95596249999979 79.35999999999997 40.60999999999995
    vertex 109.45596249999979 79.35999999999997 34.60999999999994
  endloop
endfacet
endsolid kapture-case
