solid kapture-top
facet normal 0.0 0.0 1.0
  outer loop
    vertex 145.03205 0.0 4.000000000000106
    vertex 7.049916206369744e-16 81.31870199999999 4.000000000000106
    vertex 0.0 0.0 4.000000000000106
  endloop
endfacet
facet normal 0.0 0.0 1.0
  outer loop
    vertex 7.049916206369744e-16 81.31870199999999 4.000000000000106
    vertex 145.03205 0.0 4.000000000000106
    vertex 145.03205 81.31870199999999 4.000000000000106
  endloop
endfacet
facet normal -0.0 -0.0 -1.0
  outer loop
    vertex 7.049916206369744e-16 81.31870199999999 3.0000000000001075
    vertex 145.03205 0.0 3.0000000000001075
    vertex 0.0 0.0 3.0000000000001075
  endloop
endfacet
facet normal -0.0 -0.0 -1.0
  outer loop
    vertex 145.03205 0.0 3.0000000000001075
    vertex 7.049916206369744e-16 81.31870199999999 3.0000000000001075
    vertex 145.03205 81.31870199999999 3.0000000000001075
  endloop
endfacet
facet normal 0.0 1.0 0.0
  outer loop
    vertex 7.049916206369744e-16 81.31870199999999 4.000000000000106
    vertex 145.03205 81.31870199999999 3.0000000000001075
    vertex 7.049916206369744e-16 81.31870199999999 3.0000000000001075
  endloop
endfacet
facet normal 0.0 1.0 0.0
  outer loop
    vertex 145.03205 81.31870199999999 3.0000000000001075
    vertex 7.049916206369744e-16 81.31870199999999 4.000000000000106
    vertex 145.03205 81.31870199999999 4.000000000000106
  endloop
endfacet
facet normal -1.0 8.669489346214287e-18 0.0
  outer loop
    vertex 7.049916206369744e-16 81.31870199999999 4.000000000000106
    vertex 0.0 0.0 3.0000000000001075
    vertex 0.0 0.0 4.000000000000106
  endloop
endfacet
facet normal -1.0 8.669489346214287e-18 0.0
  outer loop
    vertex 0.0 0.0 3.0000000000001075
    vertex 7.049916206369744e-16 81.31870199999999 4.000000000000106
    vertex 7.049916206369744e-16 81.31870199999999 3.0000000000001075
  endloop
endfacet
facet normal 0.0 -1.0 0.0
  outer loop
    vertex 145.03205 0.0 4.000000000000106
    vertex 0.0 0.0 3.0000000000001075
    vertex 145.03205 0.0 3.0000000000001075
  endloop
endfacet
facet normal 0.0 -1.0 0.0
  outer loop
    vertex 0.0 0.0 3.0000000000001075
    vertex 145.03205 0.0 4.000000000000106
    vertex 0.0 0.0 4.000000000000106
  endloop
endfacet
facet normal 1.0 0.0 0.0
  outer loop
    vertex 145.03205 81.31870199999999 3.0000000000001075
    vertex 145.03205 0.0 4.000000000000106
    vertex 145.03205 0.0 3.0000000000001075
  endloop
endfacet
facet normal 1.0 0.0 0.0
  outer loop
    vertex 145.03205 0.0 4.000000000000106
    vertex 145.03205 81.31870199999999 3.0000000000001075
    vertex 145.03205 81.31870199999999 4.000000000000106
  endloop
endfacet
facet normal 0.0 -1.0 0.0
  outer loop
    vertex 110.77403750000002 0.9999999999999996 0.9999999999999981
    vertex 106.77403750000002 0.9999999999999996 0.0
    vertex 110.77403750000002 0.9999999999999996 0.0
  endloop
endfacet
facet normal 0.0 -1.0 0.0
  outer loop
    vertex 106.77403750000002 0.9999999999999996 0.0
    vertex 110.77403750000002 0.9999999999999996 0.9999999999999981
    vertex 106.77403750000002 0.9999999999999996 0.9999999999999981
  endloop
endfacet
facet normal 0.0 1.0 0.0
  outer loop
    vertex 106.77403750000002 2.499999999999997 3.0000000000000058
    vertex 110.77403750000002 2.499999999999997 0.0
    vertex 106.77403750000002 2.499999999999997 0.0
  endloop
endfacet
facet normal 0.0 1.0 0.0
  outer loop
    vertex 110.77403750000002 2.499999999999997 0.0
    vertex 106.77403750000002 2.499999999999997 3.0000000000000058
    vertex 110.77403750000002 2.499999999999997 3.0000000000000058
  endloop
endfacet
facet normal -1.0 0.0 0.0
  outer loop
    vertex 106.77403750000002 1.4099832412739487e-15 0.9999999999999981
    vertex 106.77403750000002 0.9999999999999996 0.9999999999999981
    vertex 106.77403750000002 0.9999999999999996 0.0
  endloop
endfacet
facet normal 0.0 -0.7071067811865476 -0.7071067811865476
  outer loop
    vertex 110.77403750000002 1.4099832412739487e-15 0.9999999999999981
    vertex 106.77403750000002 0.9999999999999996 0.0
    vertex 110.77403750000002 0.9999999999999996 0.0
  endloop
endfacet
facet normal 0.0 -0.7071067811865476 -0.7071067811865476
  outer loop
    vertex 106.77403750000002 0.9999999999999996 0.0
    vertex 110.77403750000002 1.4099832412739487e-15 0.9999999999999981
    vertex 106.77403750000002 1.4099832412739487e-15 0.9999999999999981
  endloop
endfacet
facet normal 1.0 0.0 0.0
  outer loop
    vertex 110.77403750000002 1.4099832412739487e-15 0.9999999999999981
    vertex 110.77403750000002 0.9999999999999996 0.0
    vertex 110.77403750000002 0.9999999999999996 0.9999999999999981
  endloop
endfacet
facet normal -1.0 0.0 0.0
  outer loop
    vertex 106.77403750000002 0.9999999999999996 0.0
    vertex 106.77403750000002 2.499999999999997 3.0000000000000058
    vertex 106.77403750000002 2.499999999999997 0.0
  endloop
endfacet
facet normal -1.0 0.0 0.0
  outer loop
    vertex 106.77403750000002 2.499999999999997 3.0000000000000058
    vertex 106.77403750000002 0.9999999999999996 0.0
    vertex 106.77403750000002 0.9999999999999996 3.0000000000000058
  endloop
endfacet
facet normal -1.0 0.0 0.0
  outer loop
    vertex 106.77403750000002 0.9999999999999996 3.0000000000000058
    vertex 106.77403750000002 0.9999999999999996 0.0
    vertex 106.77403750000002 0.9999999999999996 0.9999999999999981
  endloop
endfacet
facet normal 1.0 0.0 0.0
  outer loop
    vertex 110.77403750000002 0.9999999999999996 3.0000000000000058
    vertex 110.77403750000002 2.499999999999997 0.0
    vertex 110.77403750000002 2.499999999999997 3.0000000000000058
  endloop
endfacet
facet normal 1.0 0.0 0.0
  outer loop
    vertex 110.77403750000002 2.499999999999997 0.0
    vertex 110.77403750000002 0.9999999999999996 3.0000000000000058
    vertex 110.77403750000002 0.9999999999999996 0.0
  endloop
endfacet
facet normal 1.0 0.0 0.0
  outer loop
    vertex 110.77403750000002 0.9999999999999996 0.0
    vertex 110.77403750000002 0.9999999999999996 3.0000000000000058
    vertex 110.77403750000002 0.9999999999999996 0.9999999999999981
  endloop
endfacet
facet normal 0.0 -1.0 0.0
  outer loop
    vertex 110.77403750000002 0.9999999999999996 3.0000000000000058
    vertex 106.77403750000002 0.9999999999999996 0.9999999999999981
    vertex 110.77403750000002 0.9999999999999996 0.9999999999999981
  endloop
endfacet
facet normal 0.0 -1.0 0.0
  outer loop
    vertex 106.77403750000002 0.9999999999999996 0.9999999999999981
    vertex 110.77403750000002 0.9999999999999996 3.0000000000000058
    vertex 106.77403750000002 0.9999999999999996 3.0000000000000058
  endloop
endfacet
facet normal 0.0 0.0 -1.0
  outer loop
    vertex 106.77403750000002 0.9999999999999996 0.0
    vertex 110.77403750000002 2.499999999999997 0.0
    vertex 110.77403750000002 0.9999999999999996 0.0
  endloop
endfacet
facet normal 0.0 0.0 -1.0
  outer loop
    vertex 110.77403750000002 2.499999999999997 0.0
    vertex 106.77403750000002 0.9999999999999996 0.0
    vertex 106.77403750000002 2.499999999999997 0.0
  endloop
endfacet
facet normal 0.0 0.0 -1.0
  outer loop
    vertex 106.77403750000002 1.4099832412739487e-15 0.9999999999999981
    vertex 110.77403750000002 0.9999999999999996 0.9999999999999981
    vertex 110.77403750000002 1.4099832412739487e-15 0.9999999999999981
  endloop
endfacet
facet normal 0.0 0.0 -1.0
  outer loop
    vertex 110.77403750000002 0.9999999999999996 0.9999999999999981
    vertex 106.77403750000002 1.4099832412739487e-15 0.9999999999999981
    vertex 106.77403750000002 0.9999999999999996 0.9999999999999981
  endloop
endfacet
facet normal 0.0 0.0 1.0
  outer loop
    vertex 106.77403750000002 2.499999999999997 3.0000000000000058
    vertex 110.77403750000002 0.9999999999999996 3.0000000000000058
    vertex 110.77403750000002 2.499999999999997 3.0000000000000058
  endloop
endfacet
facet normal 0.0 0.0 1.0
  outer loop
    vertex 110.77403750000002 0.9999999999999996 3.0000000000000058
    vertex 106.77403750000002 2.499999999999997 3.0000000000000058
    vertex 106.77403750000002 0.9999999999999996 3.0000000000000058
  endloop
endfacet
facet normal 0.0 1.0 0.0
  outer loop
    vertex 34.25801249999995 80.31870199999993 0.9999999999999981
    vertex 38.25801249999994 80.31870199999993 0.0
    vertex 34.25801249999995 80.31870199999993 0.0
  endloop
endfacet
facet normal 0.0 1.0 0.0
  outer loop
    vertex 38.25801249999994 80.31870199999993 0.0
    vertex 34.25801249999995 80.31870199999993 0.9999999999999981
    vertex 38.25801249999994 80.31870199999993 0.9999999999999981
  endloop
endfacet
facet normal 0.0 -1.0 0.0
  outer loop
    vertex 38.25801249999994 78.81870199999993 3.0000000000000058
    vertex 34.25801249999995 78.81870199999993 0.0
    vertex 38.25801249999994 78.81870199999993 0.0
  endloop
endfacet
facet normal 0.0 -1.0 0.0
  outer loop
    vertex 34.25801249999995 78.81870199999993 0.0
    vertex 38.25801249999994 78.81870199999993 3.0000000000000058
    vertex 34.25801249999995 78.81870199999993 3.0000000000000058
  endloop
endfacet
facet normal 1.0 0.0 0.0
  outer loop
    vertex 38.25801249999994 81.31870199999993 0.9999999999999981
    vertex 38.25801249999994 80.31870199999993 0.9999999999999981
    vertex 38.25801249999994 80.31870199999993 0.0
  endloop
endfacet
facet normal 0.0 0.7071067811865476 -0.7071067811865476
  outer loop
    vertex 34.25801249999995 81.31870199999993 0.9999999999999981
    vertex 38.25801249999994 80.31870199999993 0.0
    vertex 34.25801249999995 80.31870199999993 0.0
  endloop
endfacet
facet normal 0.0 0.7071067811865476 -0.7071067811865476
  outer loop
    vertex 38.25801249999994 80.31870199999993 0.0
    vertex 34.25801249999995 81.31870199999993 0.9999999999999981
    vertex 38.25801249999994 81.31870199999993 0.9999999999999981
  endloop
endfacet
facet normal -1.0 0.0 0.0
  outer loop
    vertex 34.25801249999995 81.31870199999993 0.9999999999999981
    vertex 34.25801249999995 80.31870199999993 0.0
    vertex 34.25801249999995 80.31870199999993 0.9999999999999981
  endloop
endfacet
facet normal 1.0 0.0 0.0
  outer loop
    vertex 38.25801249999994 80.31870199999993 0.0
    vertex 38.25801249999994 78.81870199999993 3.0000000000000058
    vertex 38.25801249999994 78.81870199999993 0.0
  endloop
endfacet
facet normal 1.0 0.0 0.0
  outer loop
    vertex 38.25801249999994 78.81870199999993 3.0000000000000058
    vertex 38.25801249999994 80.31870199999993 0.0
    vertex 38.25801249999994 80.31870199999993 3.0000000000000058
  endloop
endfacet
facet normal 1.0 0.0 0.0
  outer loop
    vertex 38.25801249999994 80.31870199999993 3.0000000000000058
    vertex 38.25801249999994 80.31870199999993 0.0
    vertex 38.25801249999994 80.31870199999993 0.9999999999999981
  endloop
endfacet
facet normal -1.0 0.0 0.0
  outer loop
    vertex 34.25801249999995 80.31870199999993 3.0000000000000058
    vertex 34.25801249999995 78.81870199999993 0.0
    vertex 34.25801249999995 78.81870199999993 3.0000000000000058
  endloop
endfacet
facet normal -1.0 0.0 0.0
  outer loop
    vertex 34.25801249999995 78.81870199999993 0.0
    vertex 34.25801249999995 80.31870199999993 3.0000000000000058
    vertex 34.25801249999995 80.31870199999993 0.0
  endloop
endfacet
facet normal -1.0 0.0 0.0
  outer loop
    vertex 34.25801249999995 80.31870199999993 0.0
    vertex 34.25801249999995 80.31870199999993 3.0000000000000058
    vertex 34.25801249999995 80.31870199999993 0.9999999999999981
  endloop
endfacet
facet normal 0.0 1.0 0.0
  outer loop
    vertex 34.25801249999995 80.31870199999993 3.0000000000000058
    vertex 38.25801249999994 80.31870199999993 0.9999999999999981
    vertex 34.25801249999995 80.31870199999993 0.9999999999999981
  endloop
endfacet
facet normal 0.0 1.0 0.0
  outer loop
    vertex 38.25801249999994 80.31870199999993 0.9999999999999981
    vertex 34.25801249999995 80.31870199999993 3.0000000000000058
    vertex 38.25801249999994 80.31870199999993 3.0000000000000058
  endloop
endfacet
facet normal 0.0 0.0 -1.0
  outer loop
    vertex 38.25801249999994 80.31870199999993 0.0
    vertex 34.25801249999995 78.81870199999993 0.0
    vertex 34.25801249999995 80.31870199999993 0.0
  endloop
endfacet
facet normal 0.0 0.0 -1.0
  outer loop
    vertex 34.25801249999995 78.81870199999993 0.0
    vertex 38.25801249999994 80.31870199999993 0.0
    vertex 38.25801249999994 78.81870199999993 0.0
  endloop
endfacet
facet normal 0.0 0.0 -1.0
  outer loop
    vertex 38.25801249999994 81.31870199999993 0.9999999999999981
    vertex 34.25801249999995 80.31870199999993 0.9999999999999981
    vertex 34.25801249999995 81.31870199999993 0.9999999999999981
  endloop
endfacet
facet normal 0.0 0.0 -1.0
  outer loop
    vertex 34.25801249999995 80.31870199999993 0.9999999999999981
    vertex 38.25801249999994 81.31870199999993 0.9999999999999981
    vertex 38.25801249999994 80.31870199999993 0.9999999999999981
  endloop
endfacet
facet normal 0.0 0.0 1.0
  outer loop
    vertex 38.25801249999994 78.81870199999993 3.0000000000000058
    vertex 34.25801249999995 80.31870199999993 3.0000000000000058
    vertex 34.25801249999995 78.81870199999993 3.0000000000000058
  endloop
endfacet
facet normal 0.0 0.0 1.0
  outer loop
    vertex 34.25801249999995 80.31870199999993 3.0000000000000058
    vertex 38.25801249999994 78.81870199999993 3.0000000000000058
    vertex 38.25801249999994 80.31870199999993 3.0000000000000058
  endloop
endfacet
facet normal 0.0 -1.0 0.0
  outer loop
    vertex 38.25801250000003 0.9999999999999996 0.9999999999999981
    vertex 34.258012500000035 0.9999999999999996 0.0
    vertex 38.25801250000003 0.9999999999999996 0.0
  endloop
endfacet
facet normal 0.0 -1.0 0.0
  outer loop
    vertex 34.258012500000035 0.9999999999999996 0.0
    vertex 38.25801250000003 0.9999999999999996 0.9999999999999981
    vertex 34.258012500000035 0.9999999999999996 0.9999999999999981
  endloop
endfacet
facet normal 0.0 1.0 0.0
  outer loop
    vertex 34.258012500000035 2.499999999999997 3.0000000000000058
    vertex 38.25801250000003 2.499999999999997 0.0
    vertex 34.258012500000035 2.499999999999997 0.0
  endloop
endfacet
facet normal 0.0 1.0 0.0
  outer loop
    vertex 38.25801250000003 2.499999999999997 0.0
    vertex 34.258012500000035 2.499999999999997 3.0000000000000058
    vertex 38.25801250000003 2.499999999999997 3.0000000000000058
  endloop
endfacet
facet normal -1.0 0.0 0.0
  outer loop
    vertex 34.258012500000035 1.4099832412739487e-15 0.9999999999999981
    vertex 34.258012500000035 0.9999999999999996 0.9999999999999981
    vertex 34.258012500000035 0.9999999999999996 0.0
  endloop
endfacet
facet normal 0.0 -0.7071067811865476 -0.7071067811865476
  outer loop
    vertex 38.25801250000003 1.4099832412739487e-15 0.9999999999999981
    vertex 34.258012500000035 0.9999999999999996 0.0
    vertex 38.25801250000003 0.9999999999999996 0.0
  endloop
endfacet
facet normal 0.0 -0.7071067811865476 -0.7071067811865476
  outer loop
    vertex 34.258012500000035 0.9999999999999996 0.0
    vertex 38.25801250000003 1.4099832412739487e-15 0.9999999999999981
    vertex 34.258012500000035 1.4099832412739487e-15 0.9999999999999981
  endloop
endfacet
facet normal 1.0 0.0 0.0
  outer loop
    vertex 38.25801250000003 1.4099832412739487e-15 0.9999999999999981
    vertex 38.25801250000003 0.9999999999999996 0.0
    vertex 38.25801250000003 0.9999999999999996 0.9999999999999981
  endloop
endfacet
facet normal -1.0 0.0 0.0
  outer loop
    vertex 34.258012500000035 0.9999999999999996 0.0
    vertex 34.258012500000035 2.499999999999997 3.0000000000000058
    vertex 34.258012500000035 2.499999999999997 0.0
  endloop
endfacet
facet normal -1.0 0.0 0.0
  outer loop
    vertex 34.258012500000035 2.499999999999997 3.0000000000000058
    vertex 34.258012500000035 0.9999999999999996 0.0
    vertex 34.258012500000035 0.9999999999999996 3.0000000000000058
  endloop
endfacet
facet normal -1.0 0.0 0.0
  outer loop
    vertex 34.258012500000035 0.9999999999999996 3.0000000000000058
    vertex 34.258012500000035 0.9999999999999996 0.0
    vertex 34.258012500000035 0.9999999999999996 0.9999999999999981
  endloop
endfacet
facet normal 1.0 0.0 0.0
  outer loop
    vertex 38.25801250000003 0.9999999999999996 3.0000000000000058
    vertex 38.25801250000003 2.499999999999997 0.0
    vertex 38.25801250000003 2.499999999999997 3.0000000000000058
  endloop
endfacet
facet normal 1.0 0.0 0.0
  outer loop
    vertex 38.25801250000003 2.499999999999997 0.0
    vertex 38.25801250000003 0.9999999999999996 3.0000000000000058
    vertex 38.25801250000003 0.9999999999999996 0.0
  endloop
endfacet
facet normal 1.0 0.0 0.0
  outer loop
    vertex 38.25801250000003 0.9999999999999996 0.0
    vertex 38.25801250000003 0.9999999999999996 3.0000000000000058
    vertex 38.25801250000003 0.9999999999999996 0.9999999999999981
  endloop
endfacet
facet normal 0.0 -1.0 0.0
  outer loop
    vertex 38.25801250000003 0.9999999999999996 3.0000000000000058
    vertex 34.258012500000035 0.9999999999999996 0.9999999999999981
    vertex 38.25801250000003 0.9999999999999996 0.9999999999999981
  endloop
endfacet
facet normal 0.0 -1.0 0.0
  outer loop
    vertex 34.258012500000035 0.9999999999999996 0.9999999999999981
    vertex 38.25801250000003 0.9999999999999996 3.0000000000000058
    vertex 34.258012500000035 0.9999999999999996 3.0000000000000058
  endloop
endfacet
facet normal 0.0 0.0 -1.0
  outer loop
    vertex 34.258012500000035 0.9999999999999996 0.0
    vertex 38.25801250000003 2.499999999999997 0.0
    vertex 38.25801250000003 0.9999999999999996 0.0
  endloop
endfacet
facet normal 0.0 0.0 -1.0
  outer loop
    vertex 38.25801250000003 2.499999999999997 0.0
    vertex 34.258012500000035 0.9999999999999996 0.0
    vertex 34.258012500000035 2.499999999999997 0.0
  endloop
endfacet
facet normal 0.0 0.0 -1.0
  outer loop
    vertex 34.258012500000035 1.4099832412739487e-15 0.9999999999999981
    vertex 38.25801250000003 0.9999999999999996 0.9999999999999981
    vertex 38.25801250000003 1.4099832412739487e-15 0.9999999999999981
  endloop
endfacet
facet normal 0.0 0.0 -1.0
  outer loop
    vertex 38.25801250000003 0.9999999999999996 0.9999999999999981
    vertex 34.258012500000035 1.4099832412739487e-15 0.9999999999999981
    vertex 34.258012500000035 0.9999999999999996 0.9999999999999981
  endloop
endfacet
facet normal 0.0 0.0 1.0
  outer loop
    vertex 34.258012500000035 2.499999999999997 3.0000000000000058
    vertex 38.25801250000003 0.9999999999999996 3.0000000000000058
    vertex 38.25801250000003 2.499999999999997 3.0000000000000058
  endloop
endfacet
facet normal 0.0 0.0 1.0
  outer loop
    vertex 38.25801250000003 0.9999999999999996 3.0000000000000058
    vertex 34.258012500000035 2.499999999999997 3.0000000000000058
    vertex 34.258012500000035 0.9999999999999996 3.0000000000000058
  endloop
endfacet
facet normal 0.0 1.0 0.0
  outer loop
    vertex 106.77403750000002 80.31870199999993 0.9999999999999981
    vertex 110.77403750000002 80.31870199999993 0.0
    vertex 106.77403750000002 80.31870199999993 0.0
  endloop
endfacet
facet normal 0.0 1.0 0.0
  outer loop
    vertex 110.77403750000002 80.31870199999993 0.0
    vertex 106.77403750000002 80.31870199999993 0.9999999999999981
    vertex 110.77403750000002 80.31870199999993 0.9999999999999981
  endloop
endfacet
facet normal 0.0 -1.0 0.0
  outer loop
    vertex 110.77403750000002 78.81870199999993 3.0000000000000058
    vertex 106.77403750000002 78.81870199999993 0.0
    vertex 110.77403750000002 78.81870199999993 0.0
  endloop
endfacet
facet normal 0.0 -1.0 0.0
  outer loop
    vertex 106.77403750000002 78.81870199999993 0.0
    vertex 110.77403750000002 78.81870199999993 3.0000000000000058
    vertex 106.77403750000002 78.81870199999993 3.0000000000000058
  endloop
endfacet
facet normal 1.0 0.0 0.0
  outer loop
    vertex 110.77403750000002 81.31870199999993 0.9999999999999981
    vertex 110.77403750000002 80.31870199999993 0.9999999999999981
    vertex 110.77403750000002 80.31870199999993 0.0
  endloop
endfacet
facet normal 0.0 0.7071067811865476 -0.7071067811865476
  outer loop
    vertex 106.77403750000002 81.31870199999993 0.9999999999999981
    vertex 110.77403750000002 80.31870199999993 0.0
    vertex 106.77403750000002 80.31870199999993 0.0
  endloop
endfacet
facet normal 0.0 0.7071067811865476 -0.7071067811865476
  outer loop
    vertex 110.77403750000002 80.31870199999993 0.0
    vertex 106.77403750000002 81.31870199999993 0.9999999999999981
    vertex 110.77403750000002 81.31870199999993 0.9999999999999981
  endloop
endfacet
facet normal -1.0 0.0 0.0
  outer loop
    vertex 106.77403750000002 81.31870199999993 0.9999999999999981
    vertex 106.77403750000002 80.31870199999993 0.0
    vertex 106.77403750000002 80.31870199999993 0.9999999999999981
  endloop
endfacet
facet normal 1.0 0.0 0.0
  outer loop
    vertex 110.77403750000002 80.31870199999993 0.0
    vertex 110.77403750000002 78.81870199999993 3.0000000000000058
    vertex 110.77403750000002 78.81870199999993 0.0
  endloop
endfacet
facet normal 1.0 0.0 0.0
  outer loop
    vertex 110.77403750000002 78.81870199999993 3.0000000000000058
    vertex 110.77403750000002 80.31870199999993 0.0
    vertex 110.77403750000002 80.31870199999993 3.0000000000000058
  endloop
endfacet
facet normal 1.0 0.0 0.0
  outer loop
    vertex 110.77403750000002 80.31870199999993 3.0000000000000058
    vertex 110.77403750000002 80.31870199999993 0.0
    vertex 110.77403750000002 80.31870199999993 0.9999999999999981
  endloop
endfacet
facet normal -1.0 0.0 0.0
  outer loop
    vertex 106.77403750000002 80.31870199999993 3.0000000000000058
    vertex 106.77403750000002 78.81870199999993 0.0
    vertex 106.77403750000002 78.81870199999993 3.0000000000000058
  endloop
endfacet
facet normal -1.0 0.0 0.0
  outer loop
    vertex 106.77403750000002 78.81870199999993 0.0
    vertex 106.77403750000002 80.31870199999993 3.0000000000000058
    vertex 106.77403750000002 80.31870199999993 0.0
  endloop
endfacet
facet normal -1.0 0.0 0.0
  outer loop
    vertex 106.77403750000002 80.31870199999993 0.0
    vertex 106.77403750000002 80.31870199999993 3.0000000000000058
    vertex 106.77403750000002 80.31870199999993 0.9999999999999981
  endloop
endfacet
facet normal 0.0 1.0 0.0
  outer loop
    vertex 106.77403750000002 80.31870199999993 3.0000000000000058
    vertex 110.77403750000002 80.31870199999993 0.9999999999999981
    vertex 106.77403750000002 80.31870199999993 0.9999999999999981
  endloop
endfacet
facet normal 0.0 1.0 0.0
  outer loop
    vertex 110.77403750000002 80.31870199999993 0.9999999999999981
    vertex 106.77403750000002 80.31870199999993 3.0000000000000058
    vertex 110.77403750000002 80.31870199999993 3.0000000000000058
  endloop
endfacet
facet normal 0.0 0.0 -1.0
  outer loop
    vertex 110.77403750000002 80.31870199999993 0.0
    vertex 106.77403750000002 78.81870199999993 0.0
    vertex 106.77403750000002 80.31870199999993 0.0
  endloop
endfacet
facet normal 0.0 0.0 -1.0
  outer loop
    vertex 106.77403750000002 78.81870199999993 0.0
    vertex 110.77403750000002 80.31870199999993 0.0
    vertex 110.77403750000002 78.81870199999993 0.0
  endloop
endfacet
facet normal 0.0 0.0 -1.0
  outer loop
    vertex 110.77403750000002 81.31870199999993 0.9999999999999981
    vertex 106.77403750000002 80.31870199999993 0.9999999999999981
    vertex 106.77403750000002 81.31870199999993 0.9999999999999981
  endloop
endfacet
facet normal 0.0 0.0 -1.0
  outer loop
    vertex 106.77403750000002 80.31870199999993 0.9999999999999981
    vertex 110.77403750000002 81.31870199999993 0.9999999999999981
    vertex 110.77403750000002 80.31870199999993 0.9999999999999981
  endloop
endfacet
facet normal 0.0 0.0 1.0
  outer loop
    vertex 110.77403750000002 78.81870199999993 3.0000000000000058
    vertex 106.77403750000002 80.31870199999993 3.0000000000000058
    vertex 106.77403750000002 78.81870199999993 3.0000000000000058
  endloop
endfacet
facet normal 0.0 0.0 1.0
  outer loop
    vertex 106.77403750000002 80.31870199999993 3.0000000000000058
    vertex 110.77403750000002 78.81870199999993 3.0000000000000058
    vertex 110.77403750000002 80.31870199999993 3.0000000000000058
  endloop
endfacet
endsolid kapture-top
